<ttFont>
          <CharString index="0">
            -23 callsubr
            -106 callsubr
            return
          </CharString>
          <CharString index="1">
            219 callsubr
            -264 120 callgsubr
            232 vlineto
            21 7 5 19 vhcurveto
            30 hlineto
            21 198 callgsubr
            return
          </CharString>
          <CharString index="2">
            -7 -103 callsubr
            return
          </CharString>
          <CharString index="3">
            -67 29 -100 callsubr
            -22 159 callgsubr
            18 hvcurveto
            return
          </CharString>
          <CharString index="4">
            5 21 hvcurveto
            return
          </CharString>
          <CharString index="5">
            -97 271 -337 hlineto
            -107 callgsubr
            322 -58 callsubr
            return
          </CharString>
          <CharString index="6">
            -104 callgsubr
            162 -86 callsubr
            return
          </CharString>
          <CharString index="7">
            -32 92 vhcurveto
            105 hlineto
            92 30 -84 callgsubr
            return
          </CharString>
          <CharString index="8">
            vlineto
            -99 callgsubr
            return
          </CharString>
          <CharString index="9">
            hlineto
            -93 callgsubr
            return
          </CharString>
          <CharString index="10">
            -100 callgsubr
            18 vhcurveto
            return
          </CharString>
          <CharString index="11">
            271 -81 385 callsubr
            -163 vlineto
            -81 37 252 callgsubr
            348 return
          </CharString>
          <CharString index="12">
            -82 callgsubr
            endchar
          </CharString>
          <CharString index="13">
            -81 43 -32 93 vhcurveto
            -18 callsubr
          </CharString>
          <CharString index="14">
            -97 65 -81 callsubr
            return
          </CharString>
          <CharString index="15">
            7 9 4 11 16 vvcurveto
            121 vlineto
            11 -2 8 return
          </CharString>
          <CharString index="16">
            -86 callgsubr
            -65 return
          </CharString>
          <CharString index="17">
            391 callsubr
            129 vlineto
            26 5 5 26 vhcurveto
            50 -160 hlineto
            -78 callsubr
            return
          </CharString>
          <CharString index="18">
            rmoveto
            295 callsubr
            -48 50 callsubr
            48 155 callgsubr
            -117 130 rmoveto
            204 callgsubr
            -415 20 callgsubr
            134 hlineto
            91 35 332 callgsubr
            68 -35 448 callgsubr
          </CharString>
          <CharString index="19">
            92 callsubr
            245 92 callgsubr
            -105 125 rmoveto
            -91 -32 110 callsubr
            32 253 callgsubr
            32 42 69 hvcurveto
            273 vlineto
            69 -32 448 callgsubr
          </CharString>
          <CharString index="20">
            -80 callsubr
            -37 return
          </CharString>
          <CharString index="21">
            vlineto
            18 183 callgsubr
            return
          </CharString>
          <CharString index="22">
            240 callgsubr
            102 190 callsubr
            return
          </CharString>
          <CharString index="23">
            -274 -113 hlineto
            22 6 12 15 31 vvcurveto
            120 392 callgsubr
            -111 363 callgsubr
            -79 139 64 vlineto
            19 223 callgsubr
            23 288 callgsubr
            -86 259 callgsubr
            -43 -96 43 hlineto
            19 8 -6 -21 hvcurveto
            -85 -45 callgsubr
            -23 141 callsubr
            72 -139 -86 vlineto
            -67 29 -39 315 callgsubr
            39 67 hvcurveto
            81 79 362 callgsubr
            return
          </CharString>
          <CharString index="24">
            21 callgsubr
            21 14 -66 callsubr
            return
          </CharString>
          <CharString index="25">
            87 callsubr
            -34 0 callsubr
            63 -143 284 callsubr
            121 303 callsubr
            150 vlineto
            68 -31 41 -89 vhcurveto
            -86 78 callgsubr
            112 -5 callsubr
            34 12 callgsubr
            -63 143 83 vlineto
            68 -35 42 -91 vhcurveto
            -122 hlineto
            -91 -35 -42 -68 hvcurveto
            -145 vlineto
            -68 30 -44 88 vhcurveto
            88 hlineto
            20 249 callsubr
            return
          </CharString>
          <CharString index="26">
            -539 -53 callsubr
            return
          </CharString>
          <CharString index="27">
            -19 callgsubr
            -116 -57 callgsubr
            return
          </CharString>
          <CharString index="28">
            139 -72 callgsubr
          </CharString>
          <CharString index="29">
            -21 -9 -47 callgsubr
            return
          </CharString>
          <CharString index="30">
            -67 446 callsubr
            98 callgsubr
            90 -140 -76 -17 callsubr
            131 return
          </CharString>
          <CharString index="31">
            -5 callgsubr
            -4 -16 -15 -34 vvcurveto
            return
          </CharString>
          <CharString index="32">
            vlineto
            17 -4 13 -8 9 vhcurveto
            return
          </CharString>
          <CharString index="33">
            vlineto
            -64 callgsubr
            return
          </CharString>
          <CharString index="34">
            -79 callgsubr
            -146 -95 callgsubr
            89 -26 callsubr
            return
          </CharString>
          <CharString index="35">
            -32 -67 hvcurveto
            return
          </CharString>
          <CharString index="36">
            -18 -9 -103 callsubr
            return
          </CharString>
          <CharString index="37">
            -52 callgsubr
            -4 -15 16 return
          </CharString>
          <CharString index="38">
            4 6 2 9 10 vvcurveto
            141 178 callsubr
            -85 hlineto
            -100 -36 -32 -81 hvcurveto
            -126 vlineto
            -19 5 -14 10 -10 vhcurveto
            -43 -10 -24 -34 -55 vvcurveto
            -136 vlineto
            -68 37 -33 61 vhcurveto
            122 81 callsubr
            -81 140 246 -140 -54 vlineto
            -22 -10 -7 -19 vhcurveto
            -73 -88 callgsubr
            93 -40 callgsubr
            return
          </CharString>
          <CharString index="39">
            -80 callgsubr
            188 return
          </CharString>
          <CharString index="40">
            -52 callsubr
            390 372 callsubr
            -273 295 callgsubr
            return
          </CharString>
          <CharString index="41">
            5 -7 callgsubr
            return
          </CharString>
          <CharString index="42">
            121 callsubr
            -29 callgsubr
            return
          </CharString>
          <CharString index="43">
            rmoveto
            -358 287 callsubr
            -23 0 callsubr
            365 -140 -384 366 callsubr
            429 callgsubr
          </CharString>
          <CharString index="44">
            -8 -103 callsubr
            return
          </CharString>
          <CharString index="45">
            161 callgsubr
            64 return
          </CharString>
          <CharString index="46">
            -83 188 callgsubr
            19 hvcurveto
            67 403 callsubr
            -245 vlineto
            -21 292 callsubr
            -230 -98 callsubr
            116 -15 callgsubr
            35 97 -35 -98 callsubr
            117 170 callsubr
            return
          </CharString>
          <CharString index="47">
            209 -67 callgsubr
            return
          </CharString>
          <CharString index="48">
            -21 -28 callsubr
            return
          </CharString>
          <CharString index="49">
            -25 callgsubr
            18 vhcurveto
            return
          </CharString>
          <CharString index="50">
            rmoveto
            -20 -7 7 18 hvcurveto
            235 308 callsubr
            -221 287 callsubr
            return
          </CharString>
          <CharString index="51">
            hlineto
            -55 callsubr
            return
          </CharString>
          <CharString index="52">
            -38 callgsubr
            18 vhcurveto
            21 292 callgsubr
            -19 hvcurveto
            return
          </CharString>
          <CharString index="53">
            hlineto
            21 14 -43 callsubr
          </CharString>
          <CharString index="54">
            -3 callgsubr
            65 return
          </CharString>
          <CharString index="55">
            -57 callsubr
            32 return
          </CharString>
          <CharString index="56">
            -10 callgsubr
            -18 vhcurveto
            -188 100 175 hlineto
            411 callsubr
            -353 -305 72 callsubr
            return
          </CharString>
          <CharString index="57">
            -141 -97 97 41 callsubr
            -155 91 callgsubr
            64 -140 -74 259 callsubr
            82 12 callsubr
            return
          </CharString>
          <CharString index="58">
            -102 callsubr
            65 return
          </CharString>
          <CharString index="59">
            -47 callsubr
            vlineto
            endchar
          </CharString>
          <CharString index="60">
            -78 callgsubr
            77 return
          </CharString>
          <CharString index="61">
            209 rmoveto
            -73 callsubr
            86 hlineto
            return
          </CharString>
          <CharString index="62">
            vlineto
            350 callsubr
            return
          </CharString>
          <CharString index="63">
            -43 callgsubr
            338 84 vlineto
            return
          </CharString>
          <CharString index="64">
            5 9 -20 callsubr
          </CharString>
          <CharString index="65">
            -62 hlineto
            -92 -14 callgsubr
            return
          </CharString>
          <CharString index="66">
            -22 -9 -7 -19 vhcurveto
            -30 hlineto
            -18 -7 5 21 hvcurveto
            146 vlineto
            18 7 5 18 vhcurveto
            20 90 -62 203 callgsubr
            return
          </CharString>
          <CharString index="67">
            vlineto
            -81 36 -32 100 vhcurveto
            145 callgsubr
            -92 287 callgsubr
            -82 vlineto
            -21 -8 -6 -18 vhcurveto
            -28 207 callgsubr
          </CharString>
          <CharString index="68">
            97 callsubr
            64 -89 rcurveline
            -97 -95 callgsubr
            return
          </CharString>
          <CharString index="69">
            -97 279 -37 callsubr
            return
          </CharString>
          <CharString index="70">
            -107 -99 hlineto
            -70 callgsubr
            return
          </CharString>
          <CharString index="71">
            -52 callsubr
            334 rmoveto
            55 callgsubr
            -137 vlineto
            return
          </CharString>
          <CharString index="72">
            -67 446 callsubr
            62 98 -18 -98 callgsubr
            return
          </CharString>
          <CharString index="73">
            183 callsubr
            -379 301 callsubr
          </CharString>
          <CharString index="74">
            rmoveto
            118 143 rlineto
            -132 hlineto
            -53 -73 -53 73 rlineto
            -133 hlineto
            119 -143 rlineto
            return
          </CharString>
          <CharString index="75">
            rmoveto
            107 116 -107 hlineto
            return
          </CharString>
          <CharString index="76">
            40 callsubr
            -14 vhcurveto
            return
          </CharString>
          <CharString index="77">
            113 -139 -9 callgsubr
            return
          </CharString>
          <CharString index="78">
            -101 callgsubr
            138 1 callsubr
            return
          </CharString>
          <CharString index="79">
            -8 -6 -18 vhcurveto
            return
          </CharString>
          <CharString index="80">
            -79 callgsubr
            -153 -98 callsubr
            103 23 vlineto
            92 30 38 67 hvcurveto
            134 198 callsubr
            -47 88 callgsubr
            -61 79 39 -97 callsubr
            7 23 callsubr
            -97 177 callsubr
            -422 hlineto
            334 callgsubr
            -111 -80 callgsubr
            113 69 -113 vlineto
            -81 44 -32 93 vhcurveto
            return
          </CharString>
          <CharString index="81">
            13 vlineto
            93 -19 callsubr
            return
          </CharString>
          <CharString index="82">
            -93 callgsubr
            90 -59 callgsubr
            -197 hlineto
            -81 43 -32 93 vhcurveto
            return
          </CharString>
          <CharString index="83">
            49 callsubr
            98 361 callgsubr
            return
          </CharString>
          <CharString index="84">
            -70 callsubr
            -35 hhcurveto
            return
          </CharString>
          <CharString index="85">
            -16 -28 -3 hvcurveto
            -4 hlineto
            28 return
          </CharString>
          <CharString index="86">
            rmoveto
            -81 107 81 hlineto
            -221 -329 rmoveto
            -21 -9 -5 -18 312 callgsubr
            102 190 callsubr
            425 301 rmoveto
            -1309 -90 callgsubr
            261 98 -238 26 callsubr
            492 -107 -98 hlineto
            123 callgsubr
            -121 vlineto
            -22 -9 -6 135 callgsubr
            153 -37 callgsubr
            -177 vlineto
            -81 39 -32 76 vhcurveto
            73 hlineto
            33 20 9 18 11 hvcurveto
            -19 21 35 -8 50 hhcurveto
            87 407 callsubr
            81 116 callsubr
          </CharString>
          <CharString index="87">
            9 hvcurveto
            -92 -95 callsubr
          </CharString>
          <CharString index="88">
            26 38 67 hvcurveto
            105 -75 callsubr
            return
          </CharString>
          <CharString index="89">
            165 -54 callsubr
          </CharString>
          <CharString index="90">
            vlineto
            -8 callgsubr
            return
          </CharString>
          <CharString index="91">
            rmoveto
            -1087 -90 callgsubr
            308 98 -285 26 callsubr
            496 -337 hlineto
            77 callsubr
            -119 307 callgsubr
            108 -37 callgsubr
            -132 vlineto
            -81 39 -32 76 vhcurveto
            66 hlineto
            20 16 3 8 11 hvcurveto
            -46 14 36 -19 59 397 callgsubr
            60 vlineto
            endchar
          </CharString>
          <CharString index="92">
            352 -25 callgsubr
            return
          </CharString>
          <CharString index="93">
            -18 -7 -5 return
          </CharString>
          <CharString index="94">
            21 9 5 18 vhcurveto
            return
          </CharString>
          <CharString index="95">
            -338 -103 callgsubr
            return
          </CharString>
          <CharString index="96">
            93 callgsubr
            338 84 vlineto
            -261 153 callgsubr
            84 -93 vlineto
            -282 -271 -23 callgsubr
            884 364 rmoveto
            97 -1144 60 callgsubr
            322 -58 callsubr
            58 346 callsubr
            15 -66 callsubr
            -92 139 -15 callsubr
            19 vhcurveto
            32 30 callgsubr
            -39 32 -76 vhcurveto
            -62 -47 callsubr
            vlineto
            endchar
          </CharString>
          <CharString index="97">
            -250 hlineto
            5 callgsubr
            return
          </CharString>
          <CharString index="98">
            -45 callgsubr
            -28 64 callgsubr
            return
          </CharString>
          <CharString index="99">
            hlineto
            16 callsubr
            return
          </CharString>
          <CharString index="100">
            739 1016 209 261 callgsubr
            -418 hlineto
            -81 -43 -24 -75 hvcurveto
            -91 188 callgsubr
            18 hvcurveto
            68 403 callsubr
            -246 vlineto
            -21 292 callsubr
            -230 -98 callsubr
            116 -15 callgsubr
            35 97 -35 -98 callsubr
            117 170 callsubr
            807 hlineto
            146 callgsubr
            -1240 -97 66 hlineto
            5 callsubr
            return
          </CharString>
          <CharString index="101">
            -32 76 205 callgsubr
            return
          </CharString>
          <CharString index="102">
            vlineto
            32 callsubr
            return
          </CharString>
          <CharString index="103">
            -95 callgsubr
            70 -75 callgsubr
            return
          </CharString>
          <CharString index="104">
            -91 -36 110 callsubr
            36 -42 91 vhcurveto
            102 -8 callsubr
            67 -136 -48 331 callgsubr
            -26 hlineto
            166 callsubr
            18 7 7 20 vhcurveto
            26 12 callgsubr
            -48 return
          </CharString>
          <CharString index="105">
            -72 callsubr
            191 callgsubr
            return
          </CharString>
          <CharString index="106">
            -7 -26 hvcurveto
            return
          </CharString>
          <CharString index="107">
            hlineto
            -33 callgsubr
            return
          </CharString>
          <CharString index="108">
            vlineto
            71 -9 50 0 vhcurveto
            0 16 -50 33 -59 vhcurveto
            return
          </CharString>
          <CharString index="109">
            -18 -7 -7 -20 vhcurveto
            return
          </CharString>
          <CharString index="110">
            283 callsubr
            -329 rmoveto
            -21 -9 -5 -18 312 callgsubr
            102 190 callsubr
            -304 204 rmoveto
            304 -107 -257 -78 callgsubr
            736 218 rmoveto
            -1147 -97 271 -337 hlineto
            -107 callgsubr
            308 -58 callsubr
            58 -2 hlineto
            -133 401 callsubr
            135 88 324 callsubr
          </CharString>
          <CharString index="111" raw="1">
            f72f441d 0b  
          </CharString>
          <CharString index="112">
            370 callgsubr
            16 -15 -76 callsubr
            -146 vlineto
            -81 44 -32 93 vhcurveto
            return
          </CharString>
          <CharString index="113">
            32 67 hvcurveto
            return
          </CharString>
          <CharString index="114">
            71 callgsubr
            -32 -63 callgsubr
            32 113 callgsubr
            202 186 rmoveto
            97 -492 -97 177 -64 vlineto
            328 callsubr
            return
          </CharString>
          <CharString index="115">
            86 callgsubr
            -111 return
          </CharString>
          <CharString index="116">
            rmoveto
            -144 hlineto
            -91 204 callsubr
            hlineto
            return
          </CharString>
          <CharString index="117">
            262 callsubr
            32 332 callsubr
            -162 42 callgsubr
            -19 vhcurveto
            -17 -90 61 135 callsubr
            186 vlineto
            81 -40 32 -76 -36 callgsubr
          </CharString>
          <CharString index="118">
            -4 vlineto
            -28 -3 -16 -15 -35 vvcurveto
            -114 vlineto
            -68 36 -30 78 vhcurveto
            return
          </CharString>
          <CharString index="119">
            hlineto
            100 36 -56 callgsubr
            return
          </CharString>
          <CharString index="120">
            rmoveto
            96 vlineto
            68 -36 42 -90 vhcurveto
            -129 hlineto
            -91 -35 -42 -68 hvcurveto
            -416 vlineto
            -68 236 callgsubr
            129 hlineto
            90 36 42 68 hvcurveto
            232 -193 -95 50 -124 vlineto
            -19 363 callsubr
            -41 hlineto
            -20 -7 6 19 hvcurveto
            390 357 callsubr
            20 7 -7 -18 hvcurveto
            -83 vlineto
            endchar
          </CharString>
          <CharString index="121">
            hlineto
            -79 callgsubr
            -152 -95 callgsubr
            119 24 vlineto
            92 414 callsubr
            117 408 callgsubr
            -79 373 callgsubr
            8 -5 -18 hvcurveto
            -81 vlineto
            -18 371 callsubr
            -211 hlineto
            -23 callsubr
            219 callsubr
            -205 120 callgsubr
            173 307 callsubr
            -120 140 120 13 callgsubr
            53 -129 hlineto
            -81 43 -32 93 vhcurveto
            return
          </CharString>
          <CharString index="122">
            -379 161 callgsubr
            return
          </CharString>
          <CharString index="123">
            91 136 callsubr
            return
          </CharString>
          <CharString index="124">
            96 98 -53 199 callgsubr
            232 -15 callgsubr
            30 hlineto
            21 198 callgsubr
            52 -379 301 callsubr
          </CharString>
          <CharString index="125">
            -31 6 -30 -65 callsubr
            150 hlineto
            return
          </CharString>
          <CharString index="126">
            16 -15 28 -4 vhcurveto
            -4 vlineto
            -28 -3 -16 -15 -35 vvcurveto
            return
          </CharString>
          <CharString index="127">
            hlineto
            -18 -63 callsubr
            return
          </CharString>
          <CharString index="128">
            2 callgsubr
            45 27 20 36 9 hvcurveto
            -56 return
          </CharString>
          <CharString index="129">
            7 -1 callsubr
            return
          </CharString>
          <CharString index="130">
            hlineto
            99 callgsubr
            return
          </CharString>
          <CharString index="131">
            -4 280 392 rmoveto
            288 callsubr
            -49 78 callgsubr
            116 -71 callgsubr
            6 20 vhcurveto
            49 hlineto
            20 249 callsubr
            -379 vmoveto
            -19 363 callsubr
            -49 hlineto
            -20 -7 6 19 hvcurveto
            122 390 callsubr
            49 331 callsubr
            137 275 rmoveto
            68 -36 42 -90 vhcurveto
            -125 hlineto
            -91 -35 -42 -68 hvcurveto
            -110 vlineto
            -45 10 -33 34 -15 vhcurveto
            -34 -14 -10 -28 -45 vvcurveto
            -125 177 callgsubr
            125 hlineto
            90 136 callsubr
            125 vlineto
            45 -10 28 -35 14 vhcurveto
            35 15 10 33 45 vvcurveto
            endchar
          </CharString>
          <CharString index="132">
            44 callsubr
            89 13 vlineto
            92 -19 callsubr
            87 hlineto
            -209 -129 227 callsubr
            return
          </CharString>
          <CharString index="133">
            113 callsubr
            104 73 vlineto
            89 35 -42 callgsubr
            return
          </CharString>
          <CharString index="134">
            -1 callgsubr
            -19 -7 5 21 hvcurveto
            return
          </CharString>
          <CharString index="135">
            20 24 callgsubr
            return
          </CharString>
          <CharString index="136">
            278 callgsubr
            235 443 callsubr
            -379 273 callgsubr
          </CharString>
          <CharString index="137">
            -66 callgsubr
            661 364 rmoveto
            97 -970 369 callsubr
            108 hlineto
            33 26 10 19 14 hvcurveto
            -21 20 29 -8 40 hhcurveto
            62 hlineto
            23 15 -66 callsubr
            -92 139 -15 callsubr
            19 vhcurveto
            32 78 callsubr
            -18 -90 61 hlineto
            93 29 305 callsubr
          </CharString>
          <CharString index="138">
            rmoveto
            -867 245 callsubr
            98 -186 169 callsubr
            -312 309 callgsubr
            134 -37 callgsubr
            -158 vlineto
            -65 25 -33 50 -11 vhcurveto
            -104 -163 rlineto
            147 hlineto
            104 166 rlineto
            -109 138 -72 callgsubr
          </CharString>
          <CharString index="139">
            18 7 7 20 vhcurveto
            return
          </CharString>
          <CharString index="140">
            vlineto
            -35 callgsubr
            7 41 callsubr
            -39 78 61 vlineto
            68 -36 423 callsubr
            -37 -30 -68 hvcurveto
            -142 vlineto
            -35 17 -15 27 -4 400 callgsubr
            -3 -17 -15 -35 vvcurveto
            -17 46 callgsubr
            17 12 hvcurveto
            -18 370 callsubr
            return
          </CharString>
          <CharString index="141">
            -81 44 -32 93 vhcurveto
            165 35 callsubr
          </CharString>
          <CharString index="142">
            hlineto
            20 9 callgsubr
          </CharString>
          <CharString index="143">
            -78 callsubr
            -21 hlineto
            -19 -63 callsubr
            return
          </CharString>
          <CharString index="144">
            37 -56 callgsubr
            return
          </CharString>
          <CharString index="145">
            vlineto
            -2 callgsubr
          </CharString>
          <CharString index="146">
            vlineto
            -35 19 callsubr
            return
          </CharString>
          <CharString index="147">
            -93 42 callgsubr
            return
          </CharString>
          <CharString index="148">
            hlineto
            19 191 callsubr
            return
          </CharString>
          <CharString index="149">
            -19 -7 5 return
          </CharString>
          <CharString index="150">
            rmoveto
            97 -682 -97 271 -314 vlineto
            -104 callgsubr
            139 212 callgsubr
            -163 vlineto
            -24 callsubr
            352 -58 callsubr
            33 285 callsubr
            -139 379 callgsubr
            163 vlineto
            81 -40 32 -76 -36 callgsubr
          </CharString>
          <CharString index="151">
            209 395 callgsubr
            return
          </CharString>
          <CharString index="152">
            -76 callgsubr
            -74 -308 vlineto
            -97 callgsubr
            80 vlineto
            7 -15 13 -7 19 -3 rrcurveto
            345 callgsubr
            return
          </CharString>
          <CharString index="153">
            rmoveto
            77 155 callgsubr
            -143 vlineto
            -18 -7 -6 -19 vhcurveto
            -77 hlineto
            125 -339 rmoveto
            153 hlineto
            -112 242 rlineto
            57 13 23 38 55 vvcurveto
            178 vlineto
            68 -35 42 -91 vhcurveto
            -262 375 callgsubr
            238 25 hlineto
            endchar
          </CharString>
          <CharString index="154">
            53 callsubr
            -61 hlineto
            return
          </CharString>
          <CharString index="155">
            73 callgsubr
            412 257 rmoveto
            return
          </CharString>
          <CharString index="156">
            -67 26 -33 52 -10 vhcurveto
            -101 215 callgsubr
            return
          </CharString>
          <CharString index="157">
            0 callsubr
            376 -5 callsubr
            return
          </CharString>
          <CharString index="158">
            rmoveto
            -21 -9 279 callgsubr
            19 vhcurveto
            55 hlineto
            432 304 rmoveto
            -204 -208 -89 106 -56 callsubr
            -91 438 callsubr
            -139 61 callgsubr
            141 89 -332 -79 callsubr
          </CharString>
          <CharString index="159">
            -79 -26 -37 -60 hvcurveto
            -42 vlineto
            -61 26 -36 79 vhcurveto
            108 84 return
          </CharString>
          <CharString index="160">
            37 callgsubr
            162 66 callgsubr
            return
          </CharString>
          <CharString index="161">
            -82 callsubr
            endchar
          </CharString>
          <CharString index="162">
            hlineto
            -66 -43 -29 -74 hvcurveto
            -69 139 40 vlineto
            29 6 6 29 vhcurveto
            41 128 callsubr
            return
          </CharString>
          <CharString index="163">
            -97 274 -63 -88 262 callgsubr
            216 83 -187 -95 callgsubr
            121 -75 callgsubr
            71 hlineto
            -66 -123 rlineto
            83 hlineto
            65 122 rlineto
            10 -3 5 -7 -15 vvcurveto
            -78 79 88 vlineto
            55 -28 28 -66 vhcurveto
            -153 93 callsubr
            return
          </CharString>
          <CharString index="164">
            rmoveto
            160 97 97 -515 -97 279 431 callsubr
            -73 30 -34 80 -5 vhcurveto
            -89 -146 rlineto
            -17 callgsubr
            -88 146 rlineto
            75 7 29 34 71 vvcurveto
            206 callgsubr
          </CharString>
          <CharString index="165">
            -91 callgsubr
            275 -139 return
          </CharString>
          <CharString index="166">
            -64 -219 -66 callgsubr
            return
          </CharString>
          <CharString index="167">
            -98 callsubr
            155 87 callgsubr
            97 -61 hlineto
            return
          </CharString>
          <CharString index="168">
            -75 callsubr
            86 hlineto
            return
          </CharString>
          <CharString index="169">
            -277 -96 callgsubr
            55 85 callsubr
            return
          </CharString>
          <CharString index="170">
            -89 6 -24 -65 callsubr
            149 hlineto
            15 11 2 4 9 hvcurveto
            -57 4 32 -27 85 hhcurveto
            return
          </CharString>
          <CharString index="171">
            vlineto
            11 -2 8 -5 6 vhcurveto
            return
          </CharString>
          <CharString index="172">
            -66 callsubr
            -62 2 31 -30 89 hhcurveto
            97 98 -54 199 callgsubr
            232 -15 callgsubr
            30 389 callgsubr
            -179 139 179 vlineto
            411 callgsubr
            return
          </CharString>
          <CharString index="173">
            -79 callgsubr
            -123 -98 callsubr
            70 -15 callgsubr
            69 97 -69 -98 callsubr
            101 -97 callsubr
            8 41 callsubr
            -39 78 61 vlineto
            68 -36 423 callsubr
            -37 -30 -68 hvcurveto
            -142 39 callsubr
            -114 vlineto
            -68 37 -30 78 vhcurveto
            183 hlineto
            return
          </CharString>
          <CharString index="174">
            38 205 539 rmoveto
            113 -78 hlineto
            -46 9 -32 0 vhcurveto
            0 -16 38 -34 37 vhcurveto
            -96 -38 rmoveto
            152 callsubr
            82 -94 rlineto
            387 callgsubr
            return
          </CharString>
          <CharString index="175">
            -35 vlineto
            288 callsubr
            -50 78 callgsubr
            35 -125 -32 20 callgsubr
            return
          </CharString>
          <CharString index="176">
            -57 callgsubr
            -37 return
          </CharString>
          <CharString index="177">
            -56 callgsubr
            188 68 15 callsubr
            return
          </CharString>
          <CharString index="178">
            -79 callgsubr
            -34 329 callsubr
            21 7 5 18 vhcurveto
            29 97 -252 149 callsubr
            return
          </CharString>
          <CharString index="179">
            rmoveto
            -21 223 callsubr
            -21 -88 callgsubr
            118 -62 callgsubr
            return
          </CharString>
          <CharString index="180">
            -97 62 -348 hlineto
            131 callsubr
            return
          </CharString>
          <CharString index="181">
            269 callsubr
            -28 callgsubr
            -92 140 return
          </CharString>
          <CharString index="182">
            -19 -6 5 16 hvcurveto
            25 vlineto
            16 6 6 19 vhcurveto
            69 return
          </CharString>
          <CharString index="183">
            410 callsubr
            -482 -97 279 431 callsubr
            -69 26 -33 69 343 callsubr
            -90 149 rlineto
            61 11 23 33 65 vvcurveto
            -30 callsubr
            endchar
          </CharString>
          <CharString index="184">
            47 callsubr
            123 callgsubr
            return
          </CharString>
          <CharString index="185">
            285 callsubr
            -162 -45 callsubr
            return
          </CharString>
          <CharString index="186">
            vlineto
            104 46 30 74 hvcurveto
            186 vlineto
            67 -30 124 callsubr
          </CharString>
          <CharString index="187">
            -97 65 -194 hlineto
            -34 16 -16 -76 callsubr
            -122 vlineto
            return
          </CharString>
          <CharString index="188">
            hlineto
            24 15 5 10 9 hvcurveto
            return
          </CharString>
          <CharString index="189">
            71 callgsubr
            -25 hlineto
            -18 -9 5 21 hvcurveto
            130 vlineto
            415 callsubr
            return
          </CharString>
          <CharString index="190">
            -186 vlineto
            -81 40 -32 76 vhcurveto
            return
          </CharString>
          <CharString index="191">
            hlineto
            21 14 -11 callgsubr
          </CharString>
          <CharString index="192">
            -2 hlineto
            110 callgsubr
            return
          </CharString>
          <CharString index="193">
            60 vlineto
            444 callgsubr
            return
          </CharString>
          <CharString index="194">
            rmoveto
            2 callsubr
            return
          </CharString>
          <CharString index="195">
            -92 -30 -72 callsubr
            return
          </CharString>
          <CharString index="196">
            130 callsubr
            -67 vhcurveto
            endchar
          </CharString>
          <CharString index="197">
            rmoveto
            17 -22 24 -36 17 -29 64 -89 rcurveline
            -97 -98 callsubr
            return
          </CharString>
          <CharString index="198">
            rmoveto
            -91 143 rlineto
            242 callgsubr
            return
          </CharString>
          <CharString index="199">
            87 callsubr
            -37 0 callsubr
            return
          </CharString>
          <CharString index="200">
            hlineto
            -19 121 callgsubr
            19 vhcurveto
            return
          </CharString>
          <CharString index="201">
            132 callgsubr
            34 453 callsubr
          </CharString>
          <CharString index="202">
            rmoveto
            -697 -97 492 -63 -214 -212 hlineto
            398 callgsubr
            -139 176 callgsubr
            75 -149 vlineto
            -291 -287 rlineto
            150 hlineto
            141 144 rlineto
            -87 28 callgsubr
          </CharString>
          <CharString index="203">
            97 -681 -97 66 vlineto
            5 callsubr
            return
          </CharString>
          <CharString index="204">
            rmoveto
            18 -22 23 -36 18 -29 return
          </CharString>
          <CharString index="205">
            -92 -30 -39 -67 hvcurveto
            return
          </CharString>
          <CharString index="206">
            3 410 289 callgsubr
            74 97 -504 -97 290 -63 -102 199 callsubr
            -47 vlineto
            -67 29 -31 92 vhcurveto
            96 426 callgsubr
            -23 -45 callsubr
            -64 hlineto
            -14 -8 5 18 hvcurveto
            15 -139 -53 vlineto
            -40 16 -17 28 -4 vhcurveto
            -4 vlineto
            -28 -3 -16 -17 -35 vvcurveto
            return
          </CharString>
          <CharString index="207">
            -46 167 506 rmoveto
            18 7 7 19 vhcurveto
            25 12 callgsubr
            -59 vlineto
            -46 -9 -26 -33 -42 vhcurveto
            -176 -236 rlineto
            -97 361 105 -187 vlineto
            128 187 rlineto
            38 50 19 39 64 vvcurveto
            81 vlineto
            68 -37 42 -91 vhcurveto
            -108 hlineto
            -91 -35 -42 -68 hvcurveto
            -104 143 vlineto
            endchar
          </CharString>
          <CharString index="208">
            170 401 98 rmoveto
            294 callsubr
            286 97 -678 245 callsubr
            hlineto
            return
          </CharString>
          <CharString index="209">
            -97 271 -63 385 callsubr
            -104 vlineto
            -81 37 252 callgsubr
            return
          </CharString>
          <CharString index="210">
            rmoveto
            -539 80 callsubr
            return
          </CharString>
          <CharString index="211">
            69 callgsubr
            113 hlineto
            36 23 7 16 18 hvcurveto
            -15 22 27 -8 52 hhcurveto
            return
          </CharString>
          <CharString index="212">
            hlineto
            88 callsubr
            return
          </CharString>
          <CharString index="213">
            -74 callgsubr
            338 84 vlineto
            277 hmoveto
            97 -563 60 callgsubr
            315 -58 callsubr
            111 97 -90 -78 callgsubr
            114 vlineto
            endchar
          </CharString>
          <CharString index="214">
            165 callsubr
            -8 5 21 hvcurveto
            return
          </CharString>
          <CharString index="215">
            539 64 vlineto
            endchar
          </CharString>
          <CharString index="216">
            rmoveto
            -506 -97 302 104 callgsubr
            -252 -97 72 hlineto
            -9 -10 -5 -14 -21 vvcurveto
            -143 124 callgsubr
          </CharString>
          <CharString index="217">
            142 callgsubr
            -69 return
          </CharString>
          <CharString index="218">
            -59 callsubr
            -33 60 callsubr
            return
          </CharString>
          <CharString index="219">
            rmoveto
            -101 callgsubr
            return
          </CharString>
          <CharString index="220">
            hlineto
            -25 -8 7 26 hvcurveto
            return
          </CharString>
          <CharString index="221">
            62 97 -704 -97 502 -63 -94 vlineto
            -23 callsubr
            219 callsubr
            -264 vlineto
            -67 446 callsubr
            70 98 -26 226 callsubr
            30 hlineto
            21 4 -8 -18 hvcurveto
            return
          </CharString>
          <CharString index="222">
            rlineto
            137 hlineto
            172 180 rlineto
            -109 -95 callsubr
          </CharString>
          <CharString index="223">
            -335 -79 callsubr
          </CharString>
          <CharString index="224">
            -193 vlineto
            -35 16 -15 -76 callsubr
            -68 422 callsubr
            78 316 callsubr
            -94 139 478 -139 -74 vlineto
            -20 -7 -5 -19 vhcurveto
            -54 20 callsubr
            121 -40 callgsubr
            endchar
          </CharString>
          <CharString index="225">
            156 callgsubr
            186 330 callsubr
            return
          </CharString>
          <CharString index="226">
            hlineto
            -10 144 callsubr
            return
          </CharString>
          <CharString index="227">
            71 callgsubr
            -27 20 callsubr
            return
          </CharString>
          <CharString index="228">
            0 vhcurveto
            0 -37 52 -32 44 vhcurveto
            return
          </CharString>
          <CharString index="229">
            hlineto
            179 callgsubr
            return
          </CharString>
          <CharString index="230">
            107 callsubr
            141 14 320 callsubr
            -9 -5 -18 vhcurveto
            -21 hlineto
            -19 -8 5 21 hvcurveto
            118 167 callgsubr
            return
          </CharString>
          <CharString index="231">
            39 -92 vhcurveto
            200 -4 rmoveto
            -636 139 454 callgsubr
          </CharString>
          <CharString index="232">
            89 116 callsubr
          </CharString>
          <CharString index="233">
            -97 219 hlineto
            31 249 callgsubr
            -82 vlineto
            -21 292 callsubr
            -56 -97 56 78 callsubr
            -29 hlineto
            -14 371 callgsubr
            105 -139 -119 vlineto
            -67 446 callsubr
            111 200 callsubr
            return
          </CharString>
          <CharString index="234">
            320 callgsubr
            19 vhcurveto
            20 288 callgsubr
            return
          </CharString>
          <CharString index="235">
            360 callsubr
            -77 129 callsubr
            return
          </CharString>
          <CharString index="236">
            -65 -93 callsubr
            return
          </CharString>
          <CharString index="237">
            hlineto
            29 166 callgsubr
            return
          </CharString>
          <CharString index="238">
            -64 callgsubr
            348 return
          </CharString>
          <CharString index="239">
            -81 39 -32 76 vhcurveto
            90 hlineto
            26 16 8 16 8 hvcurveto
            -17 20 28 -7 36 hhcurveto
            -28 callgsubr
            -92 140 return
          </CharString>
          <CharString index="240">
            -73 -35 -34 -58 -29 4 -37 6 -43 hvcurveto
            -3 hlineto
            -9 30 -17 30 -20 31 -36 51 rcurveline
            return
          </CharString>
          <CharString index="241">
            106 callgsubr
            -53 -98 callgsubr
            return
          </CharString>
          <CharString index="242">
            hlineto
            114 callgsubr
            return
          </CharString>
          <CharString index="243">
            36 42 69 hvcurveto
            return
          </CharString>
          <CharString index="244">
            203 callgsubr
            -6 167 callsubr
            return
          </CharString>
          <CharString index="245">
            hhcurveto
            35 callgsubr
          </CharString>
          <CharString index="246">
            636 rmoveto
            -532 -97 532 hlineto
            -331 -63 rmoveto
            -139 -285 378 callgsubr
            115 97 -254 -275 vlineto
            -91 callgsubr
            endchar
          </CharString>
          <CharString index="247">
            rmoveto
            456 callgsubr
            -133 hlineto
            221 -116 rmoveto
            456 callgsubr
            -133 hlineto
            return
          </CharString>
          <CharString index="248">
            hlineto
            -18 -8 5 18 hvcurveto
            return
          </CharString>
          <CharString index="249">
            -52 -31 -21 -54 hvcurveto
            -19 -4 vlineto
            28 -3 -22 18 -45 hhcurveto
            -323 396 callsubr
            29 336 callgsubr
            97 -65 return
          </CharString>
          <CharString index="250">
            -461 -326 858 rmoveto
            -79 vlineto
            -61 35 -32 95 vhcurveto
            167 hlineto
            96 35 32 61 hvcurveto
            79 -118 58 callgsubr
            vlineto
            44 62 rmoveto
            -111 105 111 vlineto
            endchar
          </CharString>
          <CharString index="251">
            255 callgsubr
            -143 vlineto
            -81 40 -32 76 vhcurveto
            return
          </CharString>
          <CharString index="252">
            -78 265 callgsubr
            return
          </CharString>
          <CharString index="253">
            -52 -31 -21 -54 hvcurveto
            -19 -4 vlineto
            28 -3 -22 18 -45 hhcurveto
            -139 225 callgsubr
            return
          </CharString>
          <CharString index="254">
            229 callgsubr
            -28 3 22 -16 42 hhcurveto
            110 hlineto
            76 39 -56 callgsubr
            172 vlineto
            return
          </CharString>
          <CharString index="255">
            31 249 callgsubr
            413 130 rmoveto
            return
          </CharString>
          <CharString index="256">
            -97 73 119 callsubr
            75 hlineto
            return
          </CharString>
          <CharString index="257">
            -182 405 callgsubr
            return
          </CharString>
          <CharString index="258">
            -338 rmoveto
            -21 223 callsubr
            -21 -88 callgsubr
            return
          </CharString>
          <CharString index="259">
            44 -9 41 0 vhcurveto
            0 15 -37 33 -37 vhcurveto
            return
          </CharString>
          <CharString index="260">
            -337 hlineto
            -21 -8 -6 return
          </CharString>
          <CharString index="261">
            hlineto
            -76 319 callgsubr
            return
          </CharString>
          <CharString index="262">
            vlineto
            18 223 callgsubr
            return
          </CharString>
          <CharString index="263">
            188 callsubr
            111 190 callsubr
            -435 -134 rmoveto
            -21 223 callsubr
            -21 -88 callgsubr
            111 -62 callgsubr
            return
          </CharString>
          <CharString index="264">
            -89 6 -24 0 vhcurveto
            0 -38 52 299 callgsubr
            149 hlineto
            15 11 2 4 9 hvcurveto
            -84 -82 callgsubr
            endchar
          </CharString>
          <CharString index="265">
            hlineto
            164 callgsubr
          </CharString>
          <CharString index="266">
            162 callgsubr
            24 return
          </CharString>
          <CharString index="267">
            13 vlineto
            92 26 return
          </CharString>
          <CharString index="268">
            vlineto
            370 callgsubr
            17 -15 27 -3 400 callgsubr
            -4 -17 -15 -34 vvcurveto
            -50 325 callsubr
            17 97 return
          </CharString>
          <CharString index="269">
            -461 -435 834 rmoveto
            124 -108 55 -48 30 -23 40 -24 rlinecurve
            136 hlineto
            -24 203 298 callsubr
            return
          </CharString>
          <CharString index="270">
            426 callsubr
            134 -37 callgsubr
            -158 vlineto
            -65 25 -34 50 -10 vhcurveto
            -104 -163 rlineto
            147 hlineto
            126 201 rlineto
            55 vlineto
            endchar
          </CharString>
          <CharString index="271">
            hlineto
            -139 198 rlineto
            -167 hlineto
            61 -81 37 -48 33 -38 37 -31 rlinecurve
            return
          </CharString>
          <CharString index="272">
            -1 callgsubr
            -18 return
          </CharString>
          <CharString index="273">
            -33 callgsubr
            235 vlineto
            return
          </CharString>
          <CharString index="274">
            vlineto
            222 callgsubr
            return
          </CharString>
          <CharString index="275">
            174 callsubr
            23 -32 return
          </CharString>
          <CharString index="276">
            26 callsubr
            272 return
          </CharString>
          <CharString index="277">
            vlineto
            25 6 7 23 1 vhcurveto
            return
          </CharString>
          <CharString index="278">
            67 -29 39 -92 vhcurveto
            return
          </CharString>
          <CharString index="279">
            -36 42 -91 vhcurveto
            return
          </CharString>
          <CharString index="280">
            vhcurveto
            61 269 callgsubr
          </CharString>
          <CharString index="281">
            26 callgsubr
            -59 return
          </CharString>
          <CharString index="282">
            -81 36 -32 100 vhcurveto
            145 callgsubr
            -150 139 335 -139 -75 259 callgsubr
            -27 -95 callgsubr
            151 -40 callgsubr
            endchar
          </CharString>
          <CharString index="283">
            14 5 8 12 vhcurveto
            23 38 -47 53 hhcurveto
            return
          </CharString>
          <CharString index="284">
            vlineto
            -19 292 callsubr
            return
          </CharString>
          <CharString index="285">
            vlineto
            243 callgsubr
            return
          </CharString>
          <CharString index="286">
            4 8 21 vhcurveto
            return
          </CharString>
          <CharString index="287">
            vlineto
            32 callgsubr
            return
          </CharString>
          <CharString index="288">
            vlineto
            128 callgsubr
            282 -261 -95 callsubr
          </CharString>
          <CharString index="289">
            vlineto
            -81 39 -32 76 vhcurveto
            149 hlineto
            15 11 2 4 9 hvcurveto
            -84 -95 callsubr
          </CharString>
          <CharString index="290">
            120 callgsubr
            232 vlineto
            21 7 5 19 vhcurveto
            30 hlineto
            21 198 callgsubr
            52 return
          </CharString>
          <CharString index="291">
            -9 452 225 rmoveto
            -63 125 -135 -125 -117 hlineto
            233 411 rlineto
            -144 hlineto
            -217 -393 rlineto
            -124 245 -119 135 119 63 vlineto
            endchar
          </CharString>
          <CharString index="292">
            281 callgsubr
            155 -86 callsubr
            return
          </CharString>
          <CharString index="293">
            rmoveto
            -376 -105 116 -531 143 531 117 hlineto
            endchar
          </CharString>
          <CharString index="294">
            rmoveto
            36 callsubr
            return
          </CharString>
          <CharString index="295">
            71 callgsubr
            -39 hlineto
            -19 -63 callsubr
            return
          </CharString>
          <CharString index="296">
            vhcurveto
            -22 199 callgsubr
            return
          </CharString>
          <CharString index="297">
            -97 callsubr
            68 hlineto
            return
          </CharString>
          <CharString index="298">
            7 -5 -18 hvcurveto
            return
          </CharString>
          <CharString index="299">
            74 -43 29 -66 vhcurveto
            -356 396 callsubr
            30 336 callgsubr
            return
          </CharString>
          <CharString index="300">
            -97 238 hlineto
            170 callgsubr
            227 90 -183 -98 callgsubr
            157 return
          </CharString>
          <CharString index="301">
            vlineto
            -81 40 -32 76 173 callsubr
          </CharString>
          <CharString index="302">
            hlineto
            323 callsubr
          </CharString>
          <CharString index="303">
            -18 371 callgsubr
            29 -97 callsubr
            177 153 return
          </CharString>
          <CharString index="304">
            101 -311 -101 163 vlineto
            -175 -293 rlineto
            -101 330 101 return
          </CharString>
          <CharString index="305">
            vlineto
            68 -37 30 -78 vhcurveto
            return
          </CharString>
          <CharString index="306">
            vlineto
            -92 -14 callgsubr
            return
          </CharString>
          <CharString index="307">
            hlineto
            93 156 callgsubr
            return
          </CharString>
          <CharString index="308">
            rmoveto
            -18 -8 -7 -19 vhcurveto
            -79 440 420 callgsubr
            -636 265 vlineto
            129 callgsubr
          </CharString>
          <CharString index="309">
            8 callsubr
            -196 hlineto
            -81 43 -32 93 vhcurveto
            return
          </CharString>
          <CharString index="310">
            -59 callsubr
            -33 -98 callsubr
            162 66 callgsubr
            return
          </CharString>
          <CharString index="311">
            -143 rlineto
            112 return
          </CharString>
          <CharString index="312">
            36 vlineto
            81 -36 31 -100 vhcurveto
            -78 -96 48 242 callsubr
            -16 392 callsubr
            -62 -88 callgsubr
            158 -40 callgsubr
            endchar
          </CharString>
          <CharString index="313">
            rmoveto
            133 hlineto
            53 74 53 -74 rlineto
            132 hlineto
            -118 143 rlineto
            -134 hlineto
            endchar
          </CharString>
          <CharString index="314">
            rmoveto
            -225 45 vlineto
            444 callsubr
            vlineto
            endchar
          </CharString>
          <CharString index="315">
            -101 callsubr
            17 90 211 callgsubr
            82 hlineto
            return
          </CharString>
          <CharString index="316">
            105 callgsubr
            98 361 callgsubr
            return
          </CharString>
          <CharString index="317">
            -108 rmoveto
            -18 -9 -9 -19 vhcurveto
            -48 -97 78 hlineto
            91 38 42 71 hvcurveto
            71 -131 vlineto
            return
          </CharString>
          <CharString index="318">
            359 callsubr
            -33 -98 callsubr
            return
          </CharString>
          <CharString index="319">
            hlineto
            -80 callsubr
            -36 return
          </CharString>
          <CharString index="320">
            -32 92 vhcurveto
            214 callgsubr
            return
          </CharString>
          <CharString index="321">
            5 17 hvcurveto
            19 vlineto
            16 return
          </CharString>
          <CharString index="322">
            371 callgsubr
            131 return
          </CharString>
          <CharString index="323">
            209 224 callsubr
            return
          </CharString>
          <CharString index="324">
            279 callsubr
            132 66 callgsubr
            -220 hlineto
            232 callgsubr
            308 vlineto
            return
          </CharString>
          <CharString index="325">
            rmoveto
            -510 274 callsubr
            142 135 callsubr
            return
          </CharString>
          <CharString index="326">
            -120 154 callsubr
            return
          </CharString>
          <CharString index="327">
            -4 vlineto
            -28 -3 -16 -15 -35 vvcurveto
            -100 vlineto
            393 callgsubr
            73 367 callsubr
            64 vlineto
            endchar
          </CharString>
          <CharString index="328">
            -22 -9 -7 -19 264 callsubr
            return
          </CharString>
          <CharString index="329">
            -76 42 callgsubr
            return
          </CharString>
          <CharString index="330">
            -8 -5 -19 vhcurveto
            return
          </CharString>
          <CharString index="331">
            rmoveto
            -73 callsubr
            86 hlineto
            146 callgsubr
            return
          </CharString>
          <CharString index="332">
            -275 hlineto
            -89 callgsubr
            return
          </CharString>
          <CharString index="333">
            -98 callgsubr
            232 -75 callgsubr
            return
          </CharString>
          <CharString index="334">
            rmoveto
            350 callsubr
            return
          </CharString>
          <CharString index="335">
            276 callgsubr
            -231 vlineto
            -81 43 -31 93 vhcurveto
            return
          </CharString>
          <CharString index="336">
            196 634 -196 hlineto
            236 -185 rmoveto
            196 185 -196 hlineto
            return
          </CharString>
          <CharString index="337">
            -97 274 -63 -88 199 callsubr
            return
          </CharString>
          <CharString index="338">
            -75 callsubr
            87 hlineto
            -209 return
          </CharString>
          <CharString index="339">
            32 -10 -27 17 -42 hhcurveto
            -24 hlineto
            -83 -34 -42 -68 hvcurveto
            -274 366 callsubr
            669 return
          </CharString>
          <CharString index="340">
            -330 -67 callgsubr
            89 13 vlineto
            92 -19 callsubr
            86 hlineto
            return
          </CharString>
          <CharString index="341">
            rmoveto
            -139 hlineto
            121 -144 rlineto
            139 hlineto
            endchar
          </CharString>
          <CharString index="342">
            rmoveto
            -116 108 116 vlineto
            endchar
          </CharString>
          <CharString index="343">
            200 105 rmoveto
            166 callsubr
            19 7 6 20 vhcurveto
            23 hlineto
            20 10 -9 -23 hvcurveto
            -221 287 callsubr
            30 return
          </CharString>
          <CharString index="344">
            -97 62 -339 262 callsubr
            return
          </CharString>
          <CharString index="345">
            275 callgsubr
            147 97 hlineto
            endchar
          </CharString>
          <CharString index="346">
            -75 callsubr
            87 hlineto
            146 callgsubr
            return
          </CharString>
          <CharString index="347">
            69 callgsubr
            108 hlineto
            return
          </CharString>
          <CharString index="348">
            -97 callsubr
            55 hlineto
            return
          </CharString>
          <CharString index="349">
            292 callgsubr
            -21 hvcurveto
            return
          </CharString>
          <CharString index="350" raw="1">
            f747079d 0b  
          </CharString>
          <CharString index="351">
            rmoveto
            98 callsubr
            -74 140 387 callsubr
            23 23 callsubr
            -147 69 callsubr
            return
          </CharString>
          <CharString index="352">
            -90 callgsubr
            209 return
          </CharString>
          <CharString index="353">
            23 callsubr
            -23 177 callsubr
            -112 -132 hlineto
            398 callsubr
            return
          </CharString>
          <CharString index="354">
            -25 391 333 callgsubr
            67 97 -488 -97 282 -63 -96 199 callsubr
            -186 vlineto
            -49 13 -31 32 -17 vhcurveto
            return
          </CharString>
          <CharString index="355">
            rmoveto
            105 -65 92 -139 -92 -52 -105 52 -279 vlineto
            -69 36 -42 90 vhcurveto
            78 107 -38 hlineto
            -19 -8 6 18 hvcurveto
            259 vlineto
            endchar
          </CharString>
          <CharString index="356">
            7 -6 -18 hvcurveto
            return
          </CharString>
          <CharString index="357">
            hlineto
            -87 callsubr
            119 return
          </CharString>
          <CharString index="358">
            rmoveto
            531 -142 -636 325 105 vlineto
            endchar
          </CharString>
          <CharString index="359">
            vhcurveto
            18 90 -42 callsubr
            return
          </CharString>
          <CharString index="360">
            87 12 callsubr
            return
          </CharString>
          <CharString index="361">
            -21 371 callsubr
            return
          </CharString>
          <CharString index="362">
            112 callsubr
            135 405 callsubr
            -159 rlineto
            -11 -3 -8 -3 -14 hhcurveto
            return
          </CharString>
          <CharString index="363">
            109 rmoveto
            14 10 2 3 10 hvcurveto
            -90 vlineto
            -21 -8 -6 -17 vhcurveto
            -56 hlineto
            -17 -63 callsubr
            60 vlineto
            21 223 callgsubr
            return
          </CharString>
          <CharString index="364">
            -2 hlineto
            -186 vlineto
            -81 36 -32 100 vhcurveto
            339 callgsubr
          </CharString>
          <CharString index="365">
            vlineto
            289 callsubr
            return
          </CharString>
          <CharString index="366">
            vlineto
            -81 37 -32 99 vhcurveto
            return
          </CharString>
          <CharString index="367">
            293 callgsubr
            -186 vlineto
            -81 return
          </CharString>
          <CharString index="368">
            350 callsubr
            -112 -114 hlineto
            -31 6 -30 121 callsubr
            358 callsubr
            return
          </CharString>
          <CharString index="369">
            209 callsubr
            352 -58 callsubr
            return
          </CharString>
          <CharString index="370">
            -32 rmoveto
            427 callgsubr
            307 hlineto
            46 21 24 42 vhcurveto
            49 121 -17 hlineto
            -53 -34 -31 -43 -10 hvcurveto
            endchar
          </CharString>
          <CharString index="371">
            43 callgsubr
            146 -97 callsubr
            return
          </CharString>
          <CharString index="372">
            rmoveto
            -380 vlineto
            -137 380 rlineto
            -129 -636 130 381 hlineto
            139 -381 rlineto
            128 636 hlineto
            return
          </CharString>
          <CharString index="373">
            -103 callgsubr
            412 257 rmoveto
            return
          </CharString>
          <CharString index="374">
            rmoveto
            -53 -34 -31 -43 -10 hvcurveto
            71 427 callgsubr
            307 vlineto
            46 21 24 42 vhcurveto
            49 121 hlineto
            endchar
          </CharString>
          <CharString index="375">
            vlineto
            -81 39 -32 76 vhcurveto
            30 hlineto
            -91 -144 rlineto
            148 hlineto
            97 158 rlineto
            -101 -95 callsubr
          </CharString>
          <CharString index="376">
            -348 vlineto
            -81 40 -32 76 vhcurveto
            return
          </CharString>
          <CharString index="377">
            hlineto
            -99 -158 rlineto
            148 hlineto
            return
          </CharString>
          <CharString index="378">
            -63 -93 199 callsubr
            return
          </CharString>
          <CharString index="379">
            412 callgsubr
            636 vlineto
            return
          </CharString>
          <CharString index="380">
            -6 -29 hvcurveto
            -40 return
          </CharString>
          <CharString index="381">
            -97 62 -189 hlineto
            -34 17 -16 27 -3 400 callgsubr
            -3 -17 -15 -35 vvcurveto
            -141 vlineto
            -67 375 callsubr
            return
          </CharString>
          <CharString index="382">
            33 302 callsubr
            -36 89 -184 hlineto
            232 callgsubr
            267 vlineto
            -19 callgsubr
            return
          </CharString>
          <CharString index="383">
            -32 291 callsubr
          </CharString>
          <CharString index="384">
            hlineto
            286 callsubr
            -5 hlineto
            28 -3 -15 16 -35 hhcurveto
            return
          </CharString>
          <CharString index="385">
            -338 rmoveto
            -21 -8 -5 -19 312 callgsubr
            return
          </CharString>
          <CharString index="386">
            202 93 callgsubr
            return
          </CharString>
          <CharString index="387">
            vlineto
            -67 446 callsubr
            62 98 -18 141 callsubr
            return
          </CharString>
          <CharString index="388">
            -75 callgsubr
            68 97 -68 -95 callgsubr
            return
          </CharString>
          <CharString index="389">
            411 636 rmoveto
            -431 -97 431 hlineto
            return
          </CharString>
          <CharString index="390">
            432 rmoveto
            -88 107 88 hlineto
            -228 return
          </CharString>
          <CharString index="391">
            -82 20 callgsubr
            return
          </CharString>
          <CharString index="392">
            hlineto
            18 7 -5 -21 hvcurveto
            return
          </CharString>
          <CharString index="393">
            -35 -15 -16 -28 -3 hvcurveto
            return
          </CharString>
          <CharString index="394">
            vlineto
            139 callgsubr
            return
          </CharString>
          <CharString index="395">
            -18 363 callsubr
            return
          </CharString>
          <CharString index="396">
            81 -39 32 -76 vhcurveto
            return
          </CharString>
          <CharString index="397">
            -126 -82 vlineto
            -59 callsubr
            -42 207 callgsubr
          </CharString>
          <CharString index="398">
            rmoveto
            -363 -105 141 callgsubr
            endchar
          </CharString>
          <CharString index="399">
            -7 -47 callgsubr
            return
          </CharString>
          <CharString index="400">
            185 callsubr
            17 97 return
          </CharString>
          <CharString index="401">
            -186 26 callsubr
            return
          </CharString>
          <CharString index="402">
            -18 319 callsubr
            return
          </CharString>
          <CharString index="403">
            112 callsubr
            150 vlineto
            18 -22 23 -36 18 -29 57 -85 rcurveline
            -3 -1 -3 -1 -7 hhcurveto
            return
          </CharString>
          <CharString index="404">
            230 callgsubr
            -76 -39 -32 -81 hvcurveto
            return
          </CharString>
          <CharString index="405">
            rlineto
            72 callgsubr
            return
          </CharString>
          <CharString index="406">
            rmoveto
            242 callgsubr
            112 hlineto
            endchar
          </CharString>
          <CharString index="407">
            vlineto
            69 -35 42 -82 vhcurveto
            endchar
          </CharString>
          <CharString index="408">
            393 callsubr
            hlineto
            endchar
          </CharString>
          <CharString index="409">
            rmoveto
            29 callgsubr
            return
          </CharString>
          <CharString index="410">
            hlineto
            351 callgsubr
            return
          </CharString>
          <CharString index="411">
            708 rmoveto
            89 -90 vlineto
            -93 374 callsubr
            -77 140 63 301 callgsubr
          </CharString>
          <CharString index="412">
            6 callsubr
            186 174 callgsubr
          </CharString>
          <CharString index="413">
            40 callgsubr
            -112 return
          </CharString>
          <CharString index="414">
            -75 callgsubr
            30 hlineto
            21 192 callgsubr
            return
          </CharString>
          <CharString index="415">
            381 callsubr
            10 -9 -23 hvcurveto
            return
          </CharString>
          <CharString index="416">
            vlineto
            -67 446 callsubr
            105 200 callsubr
            return
          </CharString>
          <CharString index="417">
            vlineto
            -81 36 -32 100 vhcurveto
            82 12 callsubr
            return
          </CharString>
          <CharString index="418">
            15 348 callsubr
            return
          </CharString>
          <CharString index="419">
            130 87 callsubr
            return
          </CharString>
          <CharString index="420">
            285 hlineto
            93 44 -56 callgsubr
            return
          </CharString>
          <CharString index="421">
            vhcurveto
            285 callgsubr
            return
          </CharString>
          <CharString index="422">
            rmoveto
            -116 107 116 vlineto
            return
          </CharString>
          <CharString index="423">
            445 callgsubr
            9 hvcurveto
            return
          </CharString>
          <CharString index="424">
            24 8 2 26 vhcurveto
            20 97 return
          </CharString>
          <CharString index="425">
            -57 vlineto
            -67 29 -32 return
          </CharString>
          <CharString index="426">
            -7 -7 -19 vhcurveto
            return
          </CharString>
          <CharString index="427">
            424 callgsubr
            52 61 callsubr
            -561 -338 rmoveto
            -21 return
          </CharString>
          <CharString index="428">
            -14 callgsubr
            -20 -87 107 callgsubr
            return
          </CharString>
          <CharString index="429">
            396 callgsubr
            -170 vlineto
            -81 39 -32 76 vhcurveto
            return
          </CharString>
          <CharString index="430">
            -99 callgsubr
            539 64 vlineto
            endchar
          </CharString>
          <CharString index="431">
            -335 -95 callsubr
          </CharString>
          <CharString index="432">
            vlineto
            -79 callgsubr
            -34 329 callsubr
            21 7 5 18 vhcurveto
            return
          </CharString>
          <CharString index="433">
            hhcurveto
            339 callgsubr
          </CharString>
          <CharString index="434">
            rmoveto
            -145 hlineto
            -105 -241 104 -254 rlineto
            146 hlineto
            -109 254 rlineto
            endchar
          </CharString>
          <CharString index="435">
            -82 -5 -30 -33 -74 vvcurveto
            -250 vlineto
            return
          </CharString>
          <CharString index="436">
            -98 callsubr
            152 vlineto
            return
          </CharString>
          <CharString index="437">
            258 callsubr
            -62 hlineto
            -23 return
          </CharString>
          <CharString index="438">
            hlineto
            20 7 -6 -19 hvcurveto
            return
          </CharString>
          <CharString index="439">
            172 callgsubr
            -21 hvcurveto
            return
          </CharString>
          <CharString index="440" raw="1">
            39077683 850b  
          </CharString>
          <CharString index="441">
            140 -140 return
          </CharString>
          <CharString index="442">
            -47 callgsubr
            -28 64 callgsubr
            -67 29 -32 93 vhcurveto
            return
          </CharString>
          <CharString index="443">
            -26 callgsubr
            -5 6 vhcurveto
            80 hlineto
            return
          </CharString>
          <CharString index="444">
            rmoveto
            150 vlineto
            17 -22 24 -36 17 -29 61 -89 rcurveline
            -94 -98 callsubr
            return
          </CharString>
          <CharString index="445">
            -4 callsubr
            33 242 callsubr
            return
          </CharString>
          <CharString index="446">
            -93 callsubr
            hlineto
            endchar
          </CharString>
          <CharString index="447">
            vhcurveto
            21 hlineto
            18 return
          </CharString>
          <CharString index="448">
            154 callgsubr
            -50 140 35 352 callgsubr
            18 340 callsubr
            return
          </CharString>
          <CharString index="449">
            rmoveto
            -61 -6 -32 -27 -65 vvcurveto
            418 callgsubr
            return
          </CharString>
          <CharString index="450">
            -9 vhcurveto
            -90 -147 rlineto
            -17 callgsubr
            return
          </CharString>
          <CharString index="451">
            410 callsubr
            -541 -97 337 -63 -154 199 callsubr
            return
          </CharString>
          <CharString index="452">
            hlineto
            93 44 -56 callgsubr
            324 callgsubr
          </CharString>
          <CharString index="453">
            -158 hlineto
            -44 callgsubr
            return
          </CharString>
          <CharString index="454">
            421 636 rmoveto
            -441 -97 441 hlineto
            return
          </CharString>
          <CharString index="455">
            447 callsubr
            -91 140 return
          </CharString>
          <CharString index="456">
            145 148 -145 hlineto
            return
          </CharString>
          <CharString index="457">
            -18 292 callsubr
            return
          </CharString>
          <CharString index="458">
            74 90 -136 hlineto
            return
          </CharString>
          <CharString index="459">
            90 -62 hlineto
            -92 return
          </CharString>
          <CharString index="460">
            445 callsubr
            -735 -97 531 -63 -96 199 callsubr
            return
          </CharString>
          <CharString index="461">
            317 callsubr
            -252 -97 72 383 callgsubr
            return
          </CharString>
          <CharString index="462">
            -172 245 636 rmoveto
            -226 -105 83 -531 143 hlineto
            endchar
          </CharString>
          <CharString index="463">
            -301 hlineto
            -92 -14 callgsubr
            return
          </CharString>
          <CharString index="464">
            -5 callsubr
            41 hlineto
            return
          </CharString>
          <CharString index="465">
            -51 78 rlineto
            73 90 -136 hlineto
            return
          </CharString>
          <CharString index="466">
            202 rmoveto
            -59 callsubr
            return
          </CharString>
          <CharString index="467">
            hlineto
            29 6 -6 -29 hvcurveto
            return
          </CharString>
          <CharString index="468">
            hlineto
            114 188 rlineto
            return
          </CharString>
          <CharString index="469">
            hlineto
            394 callgsubr
            return
          </CharString>
          <CharString index="470">
            -7 -6 -20 vhcurveto
            return
          </CharString>
          <CharString index="471">
            192 callgsubr
            -149 140 149 13 callgsubr
            52 return
          </CharString>
          <CharString index="472">
            -186 310 callsubr
            188 return
          </CharString>
          <CharString index="473">
            21 callsubr
            137 return
          </CharString>
          <CharString index="474">
            270 callsubr
            98 361 callgsubr
            539 return
          </CharString>
          <CharString index="475">
            hlineto
            -23 callsubr
            endchar
          </CharString>
          <CharString index="476">
            -97 65 -348 vlineto
            -81 39 -32 76 vhcurveto
            return
          </CharString>
          <CharString index="477">
            22 34 -8 49 hhcurveto
            return
          </CharString>
          <CharString index="478">
            -8 -47 callgsubr
            return
          </CharString>
          <CharString index="479">
            rmoveto
            -56 vlineto
            308 callgsubr
            return
          </CharString>
          <CharString index="480">
            hvcurveto
            -22 35 rlineto
            -164 hlineto
            32 -55 rlineto
            -73 43 40 -28 98 hhcurveto
            return
          </CharString>
          <CharString index="481">
            -29 -31 -67 hvcurveto
            return
          </CharString>
          <CharString index="482">
            30 -32 92 vhcurveto
            return
          </CharString>
          <CharString index="483">
            vlineto
            -23 -4 -10 -23 vhcurveto
            -49 -24 65 -86 hhcurveto
            -55 hlineto
            -73 -28 return
          </CharString>
          <CharString index="484">
            -70 vlineto
            -81 40 -32 76 vhcurveto
            -28 callgsubr
            return
          </CharString>
          <CharString index="485">
            hlineto
            26 8 -1 callsubr
            -141 vlineto
            -26 -8 -7 -26 vhcurveto
            -23 return
          </CharString>
          <CharString index="486">
            159 callgsubr
            17 hvcurveto
            10 425 callgsubr
            endchar
          </CharString>
          <CharString index="487">
            -63 356 callsubr
            return
          </CharString>
          <CharString index="488">
            -5 callsubr
            23 hlineto
            20 return
          </CharString>
          <CharString index="489">
            52 97 -458 -97 266 return
          </CharString>
          <CharString index="490">
            -18 199 callgsubr
            return
          </CharString>
          <CharString index="491">
            -379 -53 callsubr
            return
          </CharString>
          <CharString index="492">
            -71 hlineto
            -104 -46 -30 -74 hvcurveto
            return
          </CharString>
          <CharString index="493">
            669 -139 -669 vlineto
            return
          </CharString>
          <CharString index="494">
            60 126 callgsubr
            return
          </CharString>
          <CharString index="495">
            -9 255 callgsubr
            return
          </CharString>
          <CharString index="496">
            -5 -7 -3 -9 -11 vvcurveto
            return
          </CharString>
          <CharString index="497">
            vlineto
            19 7 6 20 vhcurveto
            return
          </CharString>
          <CharString index="498">
            rmoveto
            -19 -63 callsubr
            return
          </CharString>
          <CharString index="499">
            vlineto
            254 callsubr
            return
          </CharString>
          <CharString index="500">
            161 callgsubr
            62 return
          </CharString>
          <CharString index="501" raw="1">
            a8f7741d 0b  
          </CharString>
          <CharString index="502">
            -206 384 callgsubr
            -37 49 -32 44 vhcurveto
            return
          </CharString>
          <CharString index="503">
            hlineto
            -66 -43 -29 -74 hvcurveto
            -69 140 40 vlineto
            29 5 6 return
          </CharString>
          <CharString index="504">
            rmoveto
            -111 116 rlineto
            73 hlineto
            16 11 1 3 11 hvcurveto
            return
          </CharString>
          <CharString index="505">
            -81 44 -32 -83 callsubr
            return
          </CharString>
          <CharString index="506">
            rmoveto
            343 91 -343 hlineto
            endchar
          </CharString>
          <CharString index="507">
            hlineto
            1 -97 rlineto
            return
          </CharString>
          <CharString index="508">
            vlineto
            -81 36 -32 100 vhcurveto
            87 -21 callgsubr
            return
          </CharString>
          <CharString index="509">
            hlineto
            26 5 -5 -26 hvcurveto
            -17 vlineto
            -26 -5 -5 -26 vhcurveto
            return
          </CharString>
          <CharString index="510">
            155 callsubr
            17 23 callsubr
            return
          </CharString>
          <CharString index="511">
            hlineto
            359 callgsubr
            -8 5 21 hvcurveto
            return
          </CharString>
          <CharString index="512">
            1 callsubr
            89 return
          </CharString>
          <CharString index="513">
            -98 callgsubr
            99 -75 callgsubr
            return
          </CharString>
          <CharString index="514">
            -21 callgsubr
            135 return
          </CharString>
          <CharString index="515">
            9 vhcurveto
            82 hlineto
            146 callgsubr
            return
          </CharString>
          <CharString index="516">
            23 -50 vhcurveto
            -80 hlineto
            -50 -20 -23 return
          </CharString>
          <CharString index="517">
            rmoveto
            160 64 97 return
          </CharString>
          <CharString index="518">
            32 249 callgsubr
            return
          </CharString>
          <CharString index="519">
            hvcurveto
            -18 22 34 -8 return
          </CharString>
          <CharString index="520">
            29 6 5 29 vhcurveto
            return
          </CharString>
          <CharString index="521">
            29 39 67 hvcurveto
            return
          </CharString>
          <CharString index="522">
            -13 callsubr
            25 113 callgsubr
            return
          </CharString>
          <CharString index="523">
            69 callgsubr
            90 hlineto
            return
          </CharString>
          <CharString index="524">
            vlineto
            -81 40 -32 76 vhcurveto
            61 hlineto
            26 15 5 12 return
          </CharString>
          <CharString index="525">
            hlineto
            23 15 -66 callsubr
            -92 -3 callgsubr
            return
          </CharString>
          <CharString index="526">
            261 668 rmoveto
            -138 -700 138 hlineto
            return
          </CharString>
          <CharString index="527">
            161 rlineto
            -104 -95 callsubr
          </CharString>
          <CharString index="528">
            -53 callsubr
            97 return
          </CharString>
          <CharString index="529">
            vlineto
            -66 446 callsubr
            return
          </CharString>
          <CharString index="530">
            30 -78 vhcurveto
            -48 hlineto
            -78 return
          </CharString>
          <CharString index="531">
            hlineto
            19 10 -5 -23 hvcurveto
            return
          </CharString>
          <CharString index="532">
            -12 hlineto
            -81 129 rlineto
            return
          </CharString>
          <CharString index="533">
            rmoveto
            -93 callgsubr
            return
          </CharString>
          <CharString index="534">
            hlineto
            92 156 callgsubr
            return
          </CharString>
          <CharString index="535">
            539 rmoveto
            97 return
          </CharString>
          <CharString index="536">
            hlineto
            411 callsubr
            412 130 rmoveto
            return
          </CharString>
          <CharString index="537">
            450 636 rmoveto
            -470 -97 470 hlineto
            return
          </CharString>
          <CharString index="538">
            271 callsubr
            -264 vlineto
            return
          </CharString>
          <CharString index="539">
            -11 470 636 rmoveto
            -490 -97 286 return
          </CharString>
          <CharString index="540">
            295 636 rmoveto
            -315 -97 315 hlineto
            return
          </CharString>
          <CharString index="541">
            201 rmoveto
            254 callsubr
            -22 hlineto
            -18 return
          </CharString>
          <CharString index="542">
            -32 50 -8 vhcurveto
            -101 -160 rlineto
            148 hlineto
            return
          </CharString>
          <CharString index="543">
            hlineto
            11 -2 8 -4 6 vhcurveto
            return
          </CharString>
          <CharString index="544">
            -107 -32 callsubr
            return
          </CharString>
          <CharString index="545">
            -99 286 callgsubr
            return
          </CharString>
          <CharString index="546">
            148 147 -148 hlineto
            return
          </CharString>
          <CharString index="547">
            289 callgsubr
            85 97 return
          </CharString>
          <CharString index="548">
            199 callsubr
            -52 return
          </CharString>
          <CharString index="549">
            rmoveto
            437 106 -437 hlineto
            return
          </CharString>
          <CharString index="550">
            -97 callsubr
            66 return
          </CharString>
          <CharString index="551">
            96 153 rlineto
            72 return
          </CharString>
          <CharString index="552">
            rmoveto
            160 65 97 return
          </CharString>
          <CharString index="553">
            29 -32 92 vhcurveto
            return
          </CharString>
          <CharString index="554">
            4 -7 callgsubr
            return
          </CharString>
          <CharString index="555">
            -197 36 vlineto
            64 131 rlineto
            66 vlineto
            return
          </CharString>
          <CharString index="556">
            185 666 636 rmoveto
            -686 -97 return
          </CharString>
          <CharString index="557">
            -47 callgsubr
            -23 -88 callgsubr
            return
          </CharString>
          <CharString index="558">
            184 762 rmoveto
            413 callsubr
            return
          </CharString>
          <CharString index="559">
            -47 callgsubr
            -27 -88 callgsubr
            return
          </CharString>
          <CharString index="560">
            32 61 hvcurveto
            79 vlineto
            endchar
          </CharString>
          <CharString index="561">
            411 hmoveto
            97 return
          </CharString>
          <CharString index="562">
            26 39 67 hvcurveto
            return
          </CharString>
          <CharString index="563" raw="1">
            f71a06e6 0b  
          </CharString>
        <CharString name=".notdef">
          293 166 hmoveto
          422 701 -422 hlineto
          73 -68 rmoveto
          277 -565 -277 hlineto
          endchar
        </CharString>
        <CharString name="A">
          22 188 219 -65 callgsubr
        </CharString>
        <CharString name="AE">
          236 229 230 rmoveto
          109 297 rlineto
          -297 vlineto
          136 -125 rmoveto
          166 167 105 -167 155 196 105 -419 vlineto
          -247 -636 rlineto
          141 hlineto
          47 128 rlineto
          146 -128 340 105 hlineto
          endchar
        </CharString>
        <CharString name="Aacute">
          22 421 811 9 callsubr
          -110 -449 -65 callgsubr
        </CharString>
        <CharString name="Abreve">
          22 290 668 rmoveto
          16 callsubr
          32 -125 68 callsubr
          -2 -449 -65 callgsubr
        </CharString>
        <CharString name="Acircumflex">
          22 240 742 4 callgsubr
          1 -449 -65 callgsubr
        </CharString>
        <CharString name="Adieresis">
          22 417 785 27 callgsubr
          -8 -450 -65 callgsubr
        </CharString>
        <CharString name="Agrave">
          22 289 668 91 callsubr
          11 -449 -65 callgsubr
        </CharString>
        <CharString name="Amacron">
          22 411 760 254 callgsubr
          -223 -450 -65 callgsubr
        </CharString>
        <CharString name="Aogonek">
          22 188 219 rmoveto
          52 269 52 -269 rlineto
          119 -390 rmoveto
          75 callsubr
          117 -4 hlineto
          -145 622 rlineto
          -182 hlineto
          -144 -636 rlineto
          141 hlineto
          22 115 rlineto
          145 hlineto
          22 -115 rlineto
          61 -19 -6 hlineto
          355 callgsubr
        </CharString>
        <CharString name="Aring">
          22 200 763 -13 callgsubr
          -13 -449 -65 callgsubr
        </CharString>
        <CharString name="Atilde">
          22 170 694 rmoveto
          176 callsubr
          -24 callgsubr
          vlineto
          18 -450 -65 callgsubr
        </CharString>
        <CharString name="B">
          15 45 636 rmoveto
          -636 264 vlineto
          16 callsubr
          124 vlineto
          44 -10 29 -35 13 vhcurveto
          35 15 10 33 45 vvcurveto
          112 168 callgsubr
          -14 -513 87 callsubr
          -82 173 82 hlineto
          20 249 callsubr
          147 vmoveto
          2 callsubr
          -82 169 82 12 callgsubr
          endchar
        </CharString>
        <CharString name="C">
          -11 421 413 -34 callgsubr
        </CharString>
        <CharString name="CR">
          -282 endchar
        </CharString>
        <CharString name="Cacute">
          -11 407 811 9 callsubr
          137 -255 -34 callgsubr
        </CharString>
        <CharString name="Ccaron">
          -11 296 668 -33 callsubr
          259 -255 -34 callgsubr
        </CharString>
        <CharString name="Ccedilla">
          -11 164 210 callsubr
          257 461 -34 callgsubr
        </CharString>
        <CharString name="D">
          24 301 123 201 callsubr
        </CharString>
        <CharString name="Dcaron">
          24 305 668 -33 callsubr
          130 -545 201 callsubr
        </CharString>
        <CharString name="Dcroat">
          29 301 130 rmoveto
          -18 -8 -7 -19 vhcurveto
          -79 168 62 98 -62 160 330 callgsubr
          130 rmoveto
          -265 -54 -98 54 -273 265 vlineto
          129 callgsubr
        </CharString>
        <CharString name="E">
          -52 188 105 rmoveto
          166 51 callgsubr
          vlineto
          endchar
        </CharString>
        <CharString name="Eacute">
          -52 392 811 9 callsubr
          -81 -397 rmoveto
          51 callgsubr
          -204 hlineto
          endchar
        </CharString>
        <CharString name="Ecaron">
          -52 285 668 -33 callsubr
          37 -397 rmoveto
          51 callgsubr
          -204 hlineto
          endchar
        </CharString>
        <CharString name="Ecircumflex">
          -52 217 742 4 callgsubr
          24 -397 rmoveto
          51 callgsubr
          -204 hlineto
          endchar
        </CharString>
        <CharString name="Edieresis">
          -16 391 785 27 callgsubr
          18 -564 rmoveto
          166 51 callgsubr
          vlineto
          endchar
        </CharString>
        <CharString name="Edotaccent">
          -52 292 785 360 callgsubr
          -104 -563 rmoveto
          166 51 callgsubr
          vlineto
          endchar
        </CharString>
        <CharString name="Egrave">
          -52 272 668 91 callsubr
          28 -563 rmoveto
          166 51 callgsubr
          vlineto
          endchar
        </CharString>
        <CharString name="Emacron">
          -52 384 765 254 callgsubr
          -196 -569 rmoveto
          166 51 callgsubr
          vlineto
          endchar
        </CharString>
        <CharString name="Eogonek">
          -52 324 -171 rmoveto
          75 callsubr
          117 -1 91 -204 166 167 105 -167 155 196 105 -339 -636 264 -19 -6 hlineto
          355 callgsubr
        </CharString>
        <CharString name="Eth">
          22 301 123 rmoveto
          -18 -8 -7 -19 vhcurveto
          -79 175 62 98 -62 167 420 callgsubr
          -265 -54 -98 54 -273 265 vlineto
          129 callgsubr
        </CharString>
        <CharString name="Euro">
          11 442 413 rmoveto
          113 vlineto
          68 -36 42 -90 vhcurveto
          -128 hlineto
          204 callgsubr
          -103 -43 -85 43 -40 -43 -84 43 -104 vlineto
          -68 36 -42 91 vhcurveto
          128 hlineto
          90 36 42 68 hvcurveto
          110 -143 -97 vlineto
          -19 363 callsubr
          -41 hlineto
          -20 -7 6 19 hvcurveto
          91 70 84 -70 40 70 85 -70 90 357 callsubr
          20 7 -7 -18 hvcurveto
          -100 vlineto
          endchar
        </CharString>
        <CharString name="F">
          -62 387 531 rmoveto
          105 -342 -636 143 257 167 99 -167 175 vlineto
          endchar
        </CharString>
        <CharString name="G">
          -5 421 430 13 callsubr
        </CharString>
        <CharString name="Gbreve">
          -5 280 668 rmoveto
          16 callsubr
          32 -125 68 callsubr
          241 -238 13 callsubr
        </CharString>
        <CharString name="H">
          39 314 636 rmoveto
          -269 -128 269 -141 -636 141 262 128 -262 141 636 vlineto
          endchar
        </CharString>
        <CharString name="I">
          144 callgsubr
          endchar
        </CharString>
        <CharString name="Iacute">
          144 callgsubr
          -129 32 112 callgsubr
          endchar
        </CharString>
        <CharString name="Icircumflex">
          144 callgsubr
          -257 32 206 callsubr
        </CharString>
        <CharString name="Idieresis">
          -223 -58 669 140 callsubr
          -115 -149 272 callsubr
          endchar
        </CharString>
        <CharString name="Idotaccent">
          144 callgsubr
          -141 37 rmoveto
          141 117 -141 hlineto
          endchar
        </CharString>
        <CharString name="Igrave">
          144 callgsubr
          -107 175 299 callsubr
        </CharString>
        <CharString name="Imacron">
          144 callgsubr
          -242 38 399 callsubr
        </CharString>
        <CharString name="Iogonek">
          -223 122 -171 rmoveto
          75 callsubr
          117 -1 622 -142 -636 59 -19 -6 hlineto
          355 callgsubr
        </CharString>
        <CharString name="J">
          -51 12 238 rmoveto
          -127 177 callgsubr
          105 303 callsubr
          525 -143 -506 331 callgsubr
          -17 0 callsubr
          108 vlineto
          endchar
        </CharString>
        <CharString name="K">
          14 45 hmoveto
          142 636 -142 hlineto
          422 hmoveto
          323 callgsubr
        </CharString>
        <CharString name="L">
          -90 187 105 251 callsubr
        </CharString>
        <CharString name="Lacute">
          -90 298 811 9 callsubr
          12 -563 251 callsubr
        </CharString>
        <CharString name="Lcaron">
          -90 323 570 rmoveto
          66 -100 -197 36 vlineto
          -72 -334 251 callsubr
        </CharString>
        <CharString name="Lslash">
          -74 194 105 rmoveto
          206 vlineto
          107 51 rlineto
          98 vlineto
          -107 -51 rlineto
          227 -142 -295 vlineto
          -85 -40 rlineto
          -98 vlineto
          85 40 rlineto
          -243 325 105 vlineto
          endchar
        </CharString>
        <CharString name="M">
          151 359 138 rmoveto
          82 289 rlineto
          -427 126 636 -156 vlineto
          -105 -360 -105 360 rlineto
          -156 -636 126 426 hlineto
          82 -288 rlineto
          endchar
        </CharString>
        <CharString name="N">
          118 callgsubr
          endchar
        </CharString>
        <CharString name="NULL">
          -461 endchar
        </CharString>
        <CharString name="Nacute">
          25 180 668 112 callgsubr
          40 248 callgsubr
        </CharString>
        <CharString name="Ncaron">
          25 176 668 140 callgsubr
          254 248 callgsubr
        </CharString>
        <CharString name="Ntilde">
          118 callgsubr
          -128 33 rmoveto
          -24 callgsubr
          25 vlineto
          176 callsubr
          endchar
        </CharString>
        <CharString name="O">
          8 285 130 -89 callsubr
        </CharString>
        <CharString name="OE">
          212 305 123 87 callsubr
          -48 hlineto
          -19 -8 7 18 hvcurveto
          390 vlineto
          18 8 7 19 vhcurveto
          48 12 callgsubr
          132 -415 rmoveto
          176 167 99 -167 165 196 98 -301 -20 vlineto
          13 -16 -22 7 -29 hhcurveto
          -78 hlineto
          -91 -35 -42 -68 hvcurveto
          -415 177 callgsubr
          78 hlineto
          29 22 7 12 16 hvcurveto
          -19 310 98 vlineto
          endchar
        </CharString>
        <CharString name="Oacute">
          8 414 811 9 callsubr
          -6 -538 -89 callsubr
        </CharString>
        <CharString name="Ocircumflex">
          8 233 742 4 callgsubr
          105 -538 -89 callsubr
        </CharString>
        <CharString name="Odieresis">
          -3 412 785 27 callgsubr
          94 -539 -89 callsubr
        </CharString>
        <CharString name="Ograve">
          8 285 668 91 callsubr
          112 -538 -89 callsubr
        </CharString>
        <CharString name="Ohungarumlaut">
          -3 364 668 95 callgsubr
          84 -538 -89 callsubr
        </CharString>
        <CharString name="Omacron">
          8 406 760 254 callgsubr
          -121 -539 -89 callsubr
        </CharString>
        <CharString name="Oslash">
          11 294 122 87 callsubr
          -62 0 callsubr
          7 vlineto
          116 234 rlineto
          -116 151 rmoveto
          32 callsubr
          62 12 callgsubr
          -17 vlineto
          -116 -234 rlineto
          261 393 rmoveto
          -66 hlineto
          -13 -27 rlineto
          5 -16 -19 2 -22 hhcurveto
          -134 hlineto
          204 callgsubr
          -415 vlineto
          -31 7 -26 17 -18 vhcurveto
          -28 -56 rlineto
          66 hlineto
          13 26 rlineto
          -4 15 17 -2 20 hhcurveto
          190 callgsubr
          415 vlineto
          29 -6 23 -14 19 vhcurveto
          endchar
        </CharString>
        <CharString name="Otilde">
          8 171 694 rmoveto
          176 callsubr
          -24 callgsubr
          vlineto
          114 -539 -89 callsubr
        </CharString>
        <CharString name="P">
          -5 290 352 rmoveto
          295 callsubr
          -77 204 77 155 callgsubr
          -245 130 412 callgsubr
          222 120 vlineto
          351 callgsubr
          193 vlineto
          68 -35 448 callgsubr
        </CharString>
        <CharString name="Q">
          8 184 506 rmoveto
          32 callsubr
          48 155 callgsubr
          -376 vlineto
          295 callsubr
          -48 0 callsubr
          284 -207 rmoveto
          -83 95 rlineto
          30 19 13 32 42 vvcurveto
          415 vlineto
          68 -35 42 -91 vhcurveto
          -134 hlineto
          204 callgsubr
          -415 20 callgsubr
          75 hlineto
          66 -77 rlineto
          endchar
        </CharString>
        <CharString name="R">
          8 187 531 46 callsubr
        </CharString>
        <CharString name="Racute">
          8 403 811 9 callsubr
          -93 -137 46 callsubr
        </CharString>
        <CharString name="Rcaron">
          8 299 668 -33 callsubr
          22 -137 46 callsubr
        </CharString>
        <CharString name="S">
          -19 266 130 54 callsubr
        </CharString>
        <CharString name="Sacute">
          -19 174 668 112 callgsubr
          1 53 callgsubr
        </CharString>
        <CharString name="Scaron">
          -19 154 668 140 callgsubr
          231 53 callgsubr
        </CharString>
        <CharString name="T">
          -75 381 636 186 callsubr
        </CharString>
        <CharString name="Tcaron">
          -75 258 668 -33 callsubr
          257 -32 186 callsubr
        </CharString>
        <CharString name="Thorn">
          16 287 244 rmoveto
          288 callsubr
          -69 196 69 12 callgsubr
          -96 126 rmoveto
          119 -143 -636 143 118 112 vlineto
          16 callsubr
          178 302 callgsubr
        </CharString>
        <CharString name="U">
          14 288 636 rmoveto
          -506 vlineto
          -46 callgsubr
          vlineto
          endchar
        </CharString>
        <CharString name="Uacute">
          14 411 811 9 callsubr
          -32 vmoveto
          -506 vlineto
          -46 callgsubr
          vlineto
          endchar
        </CharString>
        <CharString name="Ucircumflex">
          14 237 742 4 callgsubr
          104 -32 rmoveto
          -506 vlineto
          -46 callgsubr
          vlineto
          endchar
        </CharString>
        <CharString name="Udieresis">
          14 414 785 27 callgsubr
          95 -33 rmoveto
          -506 vlineto
          -46 callgsubr
          vlineto
          endchar
        </CharString>
        <CharString name="Ugrave">
          14 292 668 91 callsubr
          108 -32 rmoveto
          -506 vlineto
          -46 callgsubr
          vlineto
          endchar
        </CharString>
        <CharString name="Uhungarumlaut">
          -2 358 668 95 callgsubr
          93 -538 rmoveto
          -46 callgsubr
          -143 vlineto
          endchar
        </CharString>
        <CharString name="Umacron">
          14 409 760 254 callgsubr
          -121 -33 rmoveto
          -506 vlineto
          -46 callgsubr
          vlineto
          endchar
        </CharString>
        <CharString name="Uogonek">
          14 288 636 rmoveto
          -506 331 callgsubr
          -48 hlineto
          -19 -7 7 18 hvcurveto
          506 -143 -525 177 callgsubr
          35 -19 -6 hlineto
          52 callsubr
          -87 hlineto
          75 callsubr
          103 15 -8 callsubr
          525 vlineto
          endchar
        </CharString>
        <CharString name="Uring">
          14 197 763 -13 callgsubr
          90 -32 rmoveto
          -506 vlineto
          -46 callgsubr
          vlineto
          endchar
        </CharString>
        <CharString name="V">
          8 314 636 rmoveto
          -80 -472 -79 472 rlineto
          -149 hlineto
          141 -636 rlineto
          175 hlineto
          140 636 rlineto
          endchar
        </CharString>
        <CharString name="W">
          289 598 636 rmoveto
          -67 -475 -84 475 rlineto
          -145 hlineto
          -84 -475 -60 475 rlineto
          -148 hlineto
          123 -636 rlineto
          171 hlineto
          71 416 71 -416 rlineto
          171 hlineto
          123 636 rlineto
          endchar
        </CharString>
        <CharString name="X">
          4 309 324 rmoveto
          135 312 rlineto
          -154 hlineto
          -61 -187 -61 187 rlineto
          -161 hlineto
          142 -312 -147 -324 rlineto
          152 hlineto
          75 202 74 -202 rlineto
          160 hlineto
          endchar
        </CharString>
        <CharString name="Y">
          -2 458 636 267 callgsubr
        </CharString>
        <CharString name="Yacute">
          -2 405 811 9 callsubr
          176 -32 267 callgsubr
        </CharString>
        <CharString name="Ydieresis">
          -15 401 797 27 callgsubr
          278 -45 267 callgsubr
        </CharString>
        <CharString name="Z">
          -54 391 636 291 callsubr
        </CharString>
        <CharString name="Zacute">
          -54 385 811 9 callsubr
          129 276 callsubr
        </CharString>
        <CharString name="Zcaron">
          -54 283 668 -33 callsubr
          -121 -137 rmoveto
          141 callgsubr
          105 -363 vlineto
          endchar
        </CharString>
        <CharString name="Zdotaccent">
          -54 285 785 360 callgsubr
          106 276 callsubr
        </CharString>
        <CharString name="a">
          -27 200 105 -67 callsubr
          -49 139 429 callgsubr
        </CharString>
        <CharString name="aacute">
          -27 400 670 9 callsubr
          -77 -422 -36 callsubr
          endchar
        </CharString>
        <CharString name="abreve">
          -27 200 105 -36 callsubr
          28 175 rmoveto
          68 callsubr
          100 -8 callsubr
          32 vlineto
          endchar
        </CharString>
        <CharString name="acircumflex">
          -27 219 601 4 callgsubr
          34 -422 -36 callsubr
          endchar
        </CharString>
        <CharString name="acute">
          9 117 527 112 callgsubr
          endchar
        </CharString>
        <CharString name="adieresis">
          -27 179 658 rmoveto
          -133 -116 133 hlineto
          21 -437 -36 callsubr
          12 163 rmoveto
          -116 456 callgsubr
          vlineto
          endchar
        </CharString>
        <CharString name="ae">
          207 205 105 rmoveto
          -33 callgsubr
          42 vlineto
          80 33 rlineto
          -70 vlineto
          -21 -1 -9 -9 -20 hhcurveto
          233 288 rmoveto
          19 8 -6 -19 hvcurveto
          -75 -94 75 390 callsubr
          199 -187 rmoveto
          16 4 162 vlineto
          69 172 callsubr
          -68 hlineto
          344 callgsubr
          -74 140 55 381 callsubr
          9 -9 -21 1 hvcurveto
          -64 vlineto
          -220 -90 rlineto
          -95 175 callgsubr
          vlineto
          endchar
        </CharString>
        <CharString name="agrave">
          -27 300 527 91 callsubr
          12 -422 -67 callsubr
          -49 139 429 callgsubr
        </CharString>
        <CharString name="amacron">
          -27 387 645 254 callgsubr
          -187 -449 -67 callsubr
          -49 139 429 callgsubr
        </CharString>
        <CharString name="ampersand">
          102 196 98 rmoveto
          -33 callgsubr
          55 vlineto
          25 8 10 17 10 vhcurveto
          20 12 125 -137 rlineto
          -135 417 rmoveto
          19 7 6 19 vhcurveto
          32 331 callsubr
          -69 vlineto
          -32 -18 -12 -37 -23 vhcurveto
          -21 23 -9 14 24 vvcurveto
          402 -476 rmoveto
          -82 92 rlineto
          7 16 4 18 21 vvcurveto
          132 -113 -73 vlineto
          -110 123 19 12 rlineto
          61 38 33 29 76 vvcurveto
          78 vlineto
          68 -34 42 -91 vhcurveto
          -109 hlineto
          204 callgsubr
          -79 vlineto
          -44 26 -33 46 -51 vhcurveto
          -22 -13 rlineto
          -60 -36 -21 -24 -60 vvcurveto
          -75 20 callgsubr
          243 hlineto
          9 8 0 1 8 hvcurveto
          34 -37 rlineto
          endchar
        </CharString>
        <CharString name="aogonek">
          -27 200 105 -57 callsubr
          101 -276 rmoveto
          75 callsubr
          117 -1 481 -137 -56 hlineto
          44 callgsubr
          56 327 callgsubr
        </CharString>
        <CharString name="apostrophemod">
          356 callgsubr
        </CharString>
        <CharString name="approxequal">
          75 347 350 rmoveto
          55 hlineto
          73 28 31 62 hvcurveto
          64 -128 -32 376 callsubr
          -30 -63 hvcurveto
          -63 128 31 vlineto
          23 5 10 23 vhcurveto
          55 24 -65 79 hhcurveto
          -188 vmoveto
          55 hlineto
          73 28 31 62 hvcurveto
          63 -128 -31 376 callsubr
          -31 -62 hvcurveto
          -64 128 32 vlineto
          22 5 11 23 vhcurveto
          55 24 -65 79 hhcurveto
          endchar
        </CharString>
        <CharString name="aring">
          -27 178 624 -13 callgsubr
          21 -424 -67 callsubr
          -49 139 429 callgsubr
        </CharString>
        <CharString name="asciicircum">
          165 204 670 rmoveto
          -126 -376 rlineto
          145 hlineto
          74 255 75 -255 rlineto
          145 hlineto
          -126 376 rlineto
          endchar
        </CharString>
        <CharString name="asciitilde">
          184 404 208 rmoveto
          55 hlineto
          73 28 30 62 hvcurveto
          78 -128 -45 vlineto
          -23 -4 -10 -23 vhcurveto
          -49 -31 78 -86 hhcurveto
          -55 hlineto
          -73 -28 -30 -63 hvcurveto
          -77 128 46 vlineto
          22 5 10 23 vhcurveto
          55 31 -78 79 hhcurveto
          endchar
        </CharString>
        <CharString name="asterisk">
          -97 347 478 rmoveto
          -32 101 -23 -7 -28 -9 -21 -11 -17 -12 rlinecurve
          5 20 4 24 28 vvcurveto
          24 -106 -23 vlineto
          -29 4 -25 6 -19 vhcurveto
          -17 11 -22 11 -27 9 -23 7 rcurveline
          -33 -100 22 -7 28 -10 25 -3 20 -1 rlinecurve
          -16 -13 -17 -17 -17 -23 -15 -20 rcurveline
          86 -62 14 19 17 24 12 22 7 19 rlinecurve
          7 -19 10 -22 17 -23 15 -20 rcurveline
          86 63 -14 19 -17 23 -18 18 -16 12 rlinecurve
          20 1 24 4 27 9 rrcurveto
          endchar
        </CharString>
        <CharString name="at">
          338 242 331 rmoveto
          -148 vlineto
          -63 32 -40 76 vhcurveto
          20 hlineto
          44 27 20 38 7 hvcurveto
          -58 189 vlineto
          82 34 42 69 hvcurveto
          300 vlineto
          69 -33 42 -82 vhcurveto
          -468 hlineto
          -82 -34 -42 -69 hvcurveto
          -472 vlineto
          -68 34 -42 82 vhcurveto
          391 99 -355 78 callgsubr
          446 -5 callsubr
          398 12 callgsubr
          -282 vlineto
          -19 363 callsubr
          -44 263 -115 -51 hlineto
          33 -9 -25 18 -41 hhcurveto
          -20 hlineto
          -76 -32 -39 -64 hvcurveto
          123 -11 rmoveto
          17 6 6 18 vhcurveto
          27 hlineto
          18 9 -8 -22 hvcurveto
          -112 vlineto
          -21 -9 -8 -18 vhcurveto
          -27 hlineto
          -18 -6 5 18 hvcurveto
          endchar
        </CharString>
        <CharString name="atilde">
          -27 153 558 rmoveto
          176 callsubr
          -24 callgsubr
          vlineto
          47 -428 -67 callsubr
          -49 139 429 callgsubr
        </CharString>
        <CharString name="b">
          -27 261 312 callsubr
          -24 hlineto
          -19 -10 9 23 hvcurveto
          221 vlineto
          23 10 9 19 vhcurveto
          24 331 callsubr
          -2 130 403 callgsubr
          137 56 vlineto
          -36 9 27 -20 44 hhcurveto
          25 hlineto
          82 414 callgsubr
          274 vlineto
          68 -35 42 -82 vhcurveto
          endchar
        </CharString>
        <CharString name="backslash">
          -58 -1 701 rmoveto
          294 -784 rlineto
          122 hlineto
          -294 784 rlineto
          endchar
        </CharString>
        <CharString name="bar">
          -221 52 799 rmoveto
          -964 129 964 vlineto
          endchar
        </CharString>
        <CharString name="braceleft">
          -151 240 665 rmoveto
          17 8 8 19 vhcurveto
          33 98 -80 hlineto
          -91 -32 -51 -66 hvcurveto
          -215 vlineto
          -64 -21 -28 -53 vhcurveto
          -10 -98 10 hlineto
          53 21 -29 -62 hvcurveto
          -217 vlineto
          -67 32 -50 91 vhcurveto
          80 98 -33 hlineto
          -19 -8 8 17 hvcurveto
          236 vlineto
          70 -30 41 -48 4 vhcurveto
          45 9 33 36 79 vvcurveto
          endchar
        </CharString>
        <CharString name="braceright">
          -151 70 439 rmoveto
          -79 32 -36 45 -9 vhcurveto
          -48 -4 -29 -41 -70 vvcurveto
          -236 vlineto
          -17 -8 -8 -20 vhcurveto
          -33 -98 80 hlineto
          92 32 50 67 hvcurveto
          217 vlineto
          62 20 29 53 vhcurveto
          11 98 -11 hlineto
          -53 -20 28 64 hvcurveto
          215 vlineto
          66 -32 51 -92 vhcurveto
          -80 -98 33 hlineto
          20 8 -8 -17 hvcurveto
          endchar
        </CharString>
        <CharString name="bracketleft">
          -146 285 683 rmoveto
          105 -238 -948 238 105 -95 738 vlineto
          endchar
        </CharString>
        <CharString name="bracketright">
          -146 261 788 rmoveto
          -238 -105 95 -738 -95 -105 238 hlineto
          endchar
        </CharString>
        <CharString name="breve">
          9 287 670 rmoveto
          68 callsubr
          100 -8 callsubr
          32 vlineto
          endchar
        </CharString>
        <CharString name="brokenbar">
          -221 45 258 rmoveto
          -353 143 353 vlineto
          119 vmoveto
          352 -143 -352 vlineto
          endchar
        </CharString>
        <CharString name="bullet">
          -65 56 321 rmoveto
          -78 64 -64 78 78 64 64 78 78 -64 64 -78 -78 -64 -64 -78 vhcurveto
          endchar
        </CharString>
        <CharString name="c">
          -48 389 317 rmoveto
          67 vlineto
          69 172 callsubr
          -102 hlineto
          -3 callsubr
          vlineto
          endchar
        </CharString>
        <CharString name="cacute">
          -48 391 670 9 callsubr
          -108 -32 rmoveto
          -3 callsubr
          136 67 vlineto
          69 -36 448 callgsubr
        </CharString>
        <CharString name="caron">
          9 168 527 140 callgsubr
          endchar
        </CharString>
        <CharString name="ccaron">
          -48 275 527 -33 callsubr
          19 -32 rmoveto
          -3 callsubr
          136 67 vlineto
          69 -36 448 callgsubr
        </CharString>
        <CharString name="ccedilla">
          -48 150 210 callsubr
          239 365 rmoveto
          67 vlineto
          69 172 callsubr
          -102 hlineto
          -3 callsubr
          vlineto
          endchar
        </CharString>
        <CharString name="cedilla">
          9 202 210 callsubr
          endchar
        </CharString>
        <CharString name="cent">
          -48 389 317 rmoveto
          67 vlineto
          64 -31 41 -77 5 vhcurveto
          80 -135 -79 vlineto
          -81 -5 -32 -41 -65 vvcurveto
          -273 vlineto
          -65 32 -41 81 -5 vhcurveto
          -79 135 80 vlineto
          77 5 31 41 64 vvcurveto
          67 -136 -48 331 callgsubr
          -26 hlineto
          166 callsubr
          18 7 7 20 vhcurveto
          26 12 callgsubr
          -48 vlineto
          endchar
        </CharString>
        <CharString name="circumflex">
          9 49 527 206 callsubr
        </CharString>
        <CharString name="colon">
          -242 37 383 rmoveto
          -271 145 271 vlineto
          endchar
        </CharString>
        <CharString name="comma">
          264 callgsubr
          endchar
        </CharString>
        <CharString name="copyright">
          284 715 339 rmoveto
          182 -56 115 -187 vhcurveto
          -194 hlineto
          -186 -56 -115 -182 hvcurveto
          -45 vlineto
          -182 56 -112 186 vhcurveto
          194 hlineto
          187 56 112 182 hvcurveto
          -413 -207 rmoveto
          -110 -45 48 146 hvcurveto
          71 vlineto
          147 45 50 110 vhcurveto
          147 hlineto
          109 46 -50 -147 hvcurveto
          -71 vlineto
          -146 -46 -48 -109 vhcurveto
          -38 167 rmoveto
          -15 -6 -5 -15 vhcurveto
          -28 hlineto
          -16 -5 5 15 hvcurveto
          133 vlineto
          14 5 5 16 vhcurveto
          28 hlineto
          15 6 -5 -14 hvcurveto
          -31 103 48 vlineto
          52 -28 31 -67 vhcurveto
          -86 hlineto
          -68 -27 -31 -52 hvcurveto
          -167 vlineto
          -52 27 -31 68 vhcurveto
          86 hlineto
          67 28 31 52 hvcurveto
          48 -103 vlineto
          endchar
        </CharString>
        <CharString name="currency">
          92 258 190 rmoveto
          -44 -19 7 55 hvcurveto
          94 vlineto
          55 19 9 44 vhcurveto
          29 hlineto
          44 19 -9 -55 hvcurveto
          -94 vlineto
          -55 -19 -7 -44 vhcurveto
          179 160 rmoveto
          34 -4 30 -11 23 vhcurveto
          48 48 -85 86 -68 -68 rlineto
          -10 -10 1 -11 hhcurveto
          -83 hlineto
          -13 -12 -1 -1 -11 hvcurveto
          -70 69 -84 -86 52 -52 rlineto
          -9 -23 -4 -28 -32 vvcurveto
          -101 vlineto
          -27 3 -24 6 -21 vhcurveto
          -48 -49 84 -85 58 57 rlineto
          -3 14 16 -1 18 hhcurveto
          83 hlineto
          16 14 1 2 13 hvcurveto
          56 -56 85 85 -44 44 rlineto
          8 22 3 26 29 vvcurveto
          endchar
        </CharString>
        <CharString name="d">
          -27 236 callsubr
          564 rmoveto
          -223 vlineto
          232 callsubr
          vlineto
          endchar
        </CharString>
        <CharString name="dagger">
          -42 411 480 rmoveto
          404 callgsubr
          -491 143 491 130 hlineto
          endchar
        </CharString>
        <CharString name="daggerdbl">
          -15 424 382 rmoveto
          98 404 callgsubr
          -271 -129 -98 129 -156 143 156 130 98 -130 271 vlineto
          endchar
        </CharString>
        <CharString name="danda">
          -77 419 callsubr
          endchar
        </CharString>
        <CharString name="dcaron">
          9 236 callsubr
          341 rmoveto
          232 callsubr
          -139 vlineto
          181 hmoveto
          448 callsubr
          endchar
        </CharString>
        <CharString name="dcroat">
          -22 205 105 -57 callsubr
          218 511 rmoveto
          -49 53 -139 -53 -68 -70 68 -100 hlineto
          32 -10 -27 17 -42 409 callgsubr
          -273 366 callsubr
          546 49 vlineto
          endchar
        </CharString>
        <CharString name="degree">
          -15 398 526 rmoveto
          68 -32 42 -90 vhcurveto
          -108 hlineto
          -91 -32 -42 -68 hvcurveto
          -98 vlineto
          -68 32 -42 91 vhcurveto
          108 hlineto
          90 32 42 68 hvcurveto
          -129 5 87 callsubr
          -40 0 callsubr
          88 -5 callsubr
          40 12 callgsubr
          endchar
        </CharString>
        <CharString name="dieresis">
          9 58 542 140 callsubr
          endchar
        </CharString>
        <CharString name="divide">
          26 25 264 442 callsubr
          151 153 rmoveto
          -104 135 104 vlineto
          -135 -308 rmoveto
          -104 135 104 vlineto
          endchar
        </CharString>
        <CharString name="dollar">
          -19 203 370 rmoveto
          -20 -7 6 18 hvcurveto
          112 -5 callsubr
          34 12 callgsubr
          -63 143 83 vlineto
          66 -33 42 -86 2 vhcurveto
          82 -135 -82 vlineto
          -87 -2 -33 -42 -66 vvcurveto
          -145 vlineto
          -68 30 -44 88 vhcurveto
          88 hlineto
          20 249 callsubr
          -115 331 callgsubr
          -34 0 callsubr
          63 -143 -82 vlineto
          -67 34 -41 84 -3 vhcurveto
          -81 135 81 vlineto
          87 2 34 41 68 vvcurveto
          150 vlineto
          68 -31 41 -89 vhcurveto
          endchar
        </CharString>
        <CharString name="dotaccent">
          9 165 540 rmoveto
          141 117 -141 hlineto
          endchar
        </CharString>
        <CharString name="dotlessi">
          134 callgsubr
          endchar
        </CharString>
        <CharString name="dottedcircle">
          199 139 517 rmoveto
          -26 18 -19 26 26 18 19 26 25 -18 19 -26 -26 -18 -19 -25 vhcurveto
          -82 -110 rmoveto
          -25 20 -19 26 24 20 19 25 25 -20 19 -24 -26 -20 -19 -25 vhcurveto
          -13 -126 rmoveto
          -25 19 -18 25 26 18 18 449 callgsubr
          52 -116 rmoveto
          -26 18 -18 26 25 19 18 26 25 -19 19 -25 -26 -18 -19 -25 vhcurveto
          101 -75 rmoveto
          -26 19 -20 26 25 19 20 26 24 -19 20 -25 -26 -19 -20 -24 vhcurveto
          127 -16 rmoveto
          -26 18 -18 26 26 19 18 26 26 -19 18 -26 -26 -18 -18 -26 vhcurveto
          121 53 rmoveto
          -26 19 -18 25 25 20 18 26 25 -20 19 -25 -25 -19 -19 -25 vhcurveto
          73 98 rmoveto
          -25 19 -19 26 24 19 19 25 26 -19 19 -24 -26 -19 -19 -26 vhcurveto
          10 134 rmoveto
          -26 18 -18 26 25 19 18 26 26 -19 18 -25 -26 -18 -18 -26 vhcurveto
          -50 118 rmoveto
          -25 19 -19 25 26 18 19 449 callgsubr
          -95 68 rmoveto
          -24 19 -20 26 25 18 20 24 26 -18 19 -25 -26 -19 -19 -26 vhcurveto
          -126 15 rmoveto
          -26 18 -18 26 26 18 18 26 26 -18 18 -26 -26 -18 -18 -26 vhcurveto
          endchar
        </CharString>
        <CharString name="doubledanda">
          141 419 callsubr
          218 700 rmoveto
          -138 -700 138 hlineto
          endchar
        </CharString>
        <CharString name="dvA">
          200 681 636 rmoveto
          -204 -84 callsubr
          64 vlineto
          endchar
        </CharString>
        <CharString name="dvAA">
          438 callgsubr
          -433 -84 callsubr
          89 -539 -79 callsubr
        </CharString>
        <CharString name="dvAI">
          11 492 636 rmoveto
          -67 164 callsubr
          -307 38 callgsubr
        </CharString>
        <CharString name="dvAU">
          438 callgsubr
          -67 hlineto
          -23 198 298 callsubr
          -167 hlineto
          124 -108 51 -45 30 -23 36 -22 rlinecurve
          -223 -84 callsubr
          89 -539 -79 callsubr
        </CharString>
        <CharString name="dvAbbreviationsign">
          -77 53 315 rmoveto
          -94 54 -48 84 84 56 48 94 94 -56 48 -84 -84 -54 -48 -94 vhcurveto
          101 hmoveto
          45 12 15 25 26 13 -15 -45 -45 -14 -15 -25 -24 -13 15 45 vhcurveto
          endchar
        </CharString>
        <CharString name="dvAcandra">
          178 681 636 rmoveto
          -204 -84 callsubr
          64 vlineto
          -24 319 94 callsubr
        </CharString>
        <CharString name="dvAnusvara">
          -461 -166 844 235 callsubr
        </CharString>
        <CharString name="dvAnusvara.amI">
          -461 27 774 315 callsubr
          endchar
        </CharString>
        <CharString name="dvAvagraha">
          -35 360 546 rmoveto
          90 -194 vlineto
          123 callgsubr
          -138 167 callsubr
          59 41 callsubr
          -164 -9 callsubr
          -67 30 -32 315 callgsubr
          32 67 hvcurveto
          192 vlineto
          67 -29 32 -92 vhcurveto
          -60 199 callgsubr
          110 301 callgsubr
        </CharString>
        <CharString name="dvB">
          -171 363 636 rmoveto
          -383 -97 383 hlineto
          -212 -461 rmoveto
          212 91 hlineto
          0 -60 95 299 callgsubr
          25 123 337 callsubr
          endchar
        </CharString>
        <CharString name="dvBA">
          58 176 351 90 callsubr
          363 435 rmoveto
          -559 -97 355 -214 hlineto
          157 callsubr
        </CharString>
        <CharString name="dvBH">
          0 251 callgsubr
          107 390 callgsubr
          55 hlineto
          310 96 rmoveto
          -171 106 -56 callsubr
          -91 438 callsubr
          -139 61 callgsubr
          141 171 vlineto
          endchar
        </CharString>
        <CharString name="dvBHA">
          213 262 201 51 callsubr
        </CharString>
        <CharString name="dvBH_LA">
          640 251 callgsubr
          109 -86 callsubr
          55 hlineto
          858 303 rmoveto
          -658 -97 456 -63 -92 282 callgsubr
          -15 16 -35 hhcurveto
          -120 hlineto
          -50 -34 -14 -32 -18 hvcurveto
          -93 104 -56 callsubr
          -89 317 callgsubr
          -140 61 callgsubr
          142 79 -234 vlineto
          -67 30 106 callgsubr
          -54 199 callgsubr
          232 -15 callgsubr
          30 389 callgsubr
          -158 139 158 vlineto
          411 callgsubr
          52 -379 -3 callgsubr
          63 hlineto
          endchar
        </CharString>
        <CharString name="dvBH_NA">
          621 690 201 73 callgsubr
          -428 -178 50 callgsubr
          93 390 callgsubr
          55 hlineto
          840 318 rmoveto
          -627 -97 423 -63 -301 hlineto
          -73 -34 -20 -42 -11 hvcurveto
          -78 120 -56 callsubr
          -105 438 callsubr
          -125 61 callgsubr
          127 74 -127 vlineto
          -81 37 196 callgsubr
        </CharString>
        <CharString name="dvBH_R">
          59 318 -71 rmoveto
          222 231 rlineto
          140 vlineto
          -360 -371 rlineto
          82 339 50 callgsubr
          45 -86 callsubr
          55 hlineto
          139 97 rmoveto
          101 vlineto
          -55 callsubr
          -86 438 callsubr
          -77 187 callgsubr
          78 139 97 vlineto
          endchar
        </CharString>
        <CharString name="dvBH_RA">
          213 262 268 50 callgsubr
          45 -86 callsubr
          55 hlineto
          432 300 rmoveto
          -204 -203 -89 101 -56 callsubr
          -86 438 callsubr
          -77 187 callgsubr
          78 89 -88 115 callgsubr
        </CharString>
        <CharString name="dvBH_R_YA">
          558 835 107 callsubr
          132 14 424 callgsubr
          61 61 callsubr
          -573 -271 50 callgsubr
          42 -86 callsubr
          55 hlineto
          777 303 rmoveto
          -570 -97 120 362 callsubr
          -53 -45 callgsubr
          -200 104 -56 callsubr
          -89 317 callgsubr
          -73 187 callgsubr
          75 89 -86 vlineto
          -310 -318 rlineto
          138 hlineto
          189 192 rlineto
          -30 21 39 -13 59 6 callgsubr
        </CharString>
        <CharString name="dvBH_VA">
          427 251 callgsubr
          109 -86 callsubr
          55 hlineto
          646 303 rmoveto
          -446 -97 242 -337 hlineto
          111 callsubr
          -63 -34 -15 -31 -15 hvcurveto
          -89 104 -56 callsubr
          -89 317 callgsubr
          -140 61 callgsubr
          142 79 -142 194 callsubr
        </CharString>
        <CharString name="dvBH_YA">
          544 821 209 -18 callgsubr
        </CharString>
        <CharString name="dvB_BA">
          359 476 351 -39 callsubr
          -299 150 -39 callsubr
          663 435 rmoveto
          -860 -97 655 284 callgsubr
          -37 52 -32 44 vhcurveto
          358 callsubr
          -92 -30 -32 -67 hvcurveto
          -104 vlineto
          18 callsubr
          32 21 8 17 12 hvcurveto
          -17 19 28 -8 37 hhcurveto
          149 hlineto
          14 12 2 4 8 hvcurveto
          -84 28 callgsubr
        </CharString>
        <CharString name="dvB_BHA">
          508 433 callsubr
          261 -338 rmoveto
          -21 -8 279 callgsubr
          19 vhcurveto
          54 hlineto
          -379 19 -39 callsubr
          812 435 217 callgsubr
          -98 vlineto
          -92 -30 -31 -67 hvcurveto
          -57 46 callgsubr
          16 12 348 callgsubr
          253 callsubr
          141 89 -332 -79 callsubr
        </CharString>
        <CharString name="dvB_BH_RA">
          506 433 callsubr
          260 -271 120 callsubr
          45 241 callsubr
          -379 15 90 callsubr
          811 435 rmoveto
          -204 -203 -88 101 41 callgsubr
          -86 -98 vlineto
          -93 374 callsubr
          -62 vlineto
          -31 6 -30 0 vhcurveto
          0 -38 52 299 callgsubr
          193 hlineto
          50 35 25 44 15 hvcurveto
          -1 8 9 0 10 hhcurveto
          87 hlineto
          100 37 31 81 hvcurveto
          78 88 -88 vlineto
          -309 -319 115 callsubr
        </CharString>
        <CharString name="dvB_DA">
          273 173 351 -39 callsubr
          516 178 445 callsubr
          -774 -97 570 -63 -96 441 callsubr
          vlineto
          -89 6 -24 0 vhcurveto
          -70 96 -29 callgsubr
          150 hlineto
          33 20 9 17 12 hvcurveto
          -18 370 callsubr
          145 callgsubr
          -92 139 284 -139 -82 259 callgsubr
          -27 -95 callgsubr
          152 -40 callgsubr
          endchar
        </CharString>
        <CharString name="dvB_DHA">
          376 433 callsubr
          -118 -188 -39 callsubr
          685 435 rmoveto
          391 callgsubr
          -330 33 callsubr
          141 -54 callsubr
        </CharString>
        <CharString name="dvB_DH_VA">
          605 433 callsubr
          -118 -188 -39 callsubr
          909 435 rmoveto
          -435 -97 231 -337 hlineto
          -21 -8 -6 -19 vhcurveto
          -32 60 callsubr
          123 callgsubr
          -168 33 callsubr
          151 hlineto
          32 21 8 16 12 hvcurveto
          -16 19 28 -8 37 397 callgsubr
          65 vlineto
          endchar
        </CharString>
        <CharString name="dvB_JA">
          485 199 175 296 callsubr
          690 461 rmoveto
          -988 -97 783 -63 -214 -275 100 callgsubr
          188 75 -379 28 callgsubr
        </CharString>
        <CharString name="dvB_JHA">
          503 787 311 rmoveto
          -275 199 callgsubr
          29 -97 callsubr
          178 153 97 hlineto
          -581 -419 112 callsubr
          190 vlineto
          9 -25 13 -29 25 -46 59 -112 rcurveline
          -3 -1 -3 -1 -7 hhcurveto
          715 516 rmoveto
          -1010 -97 570 -63 -81 105 callsubr
          -57 vlineto
          -67 375 callsubr
          71 23 callsubr
          -61 177 callsubr
          -53 75 -139 -62 hlineto
          -132 260 rlineto
          68 90 -128 154 callsubr
          -227 vlineto
          -81 39 -32 76 vhcurveto
          147 hlineto
          20 15 5 9 10 hvcurveto
          -80 139 66 96 vlineto
          114 callgsubr
          78 vlineto
          7 -1 457 callgsubr
          83 -221 273 callgsubr
        </CharString>
        <CharString name="dvB_J_YA">
          828 1109 27 callsubr
          133 22 callgsubr
          61 -75 callsubr
          87 hlineto
          -910 -364 296 callsubr
          1035 461 rmoveto
          -1333 -97 883 hlineto
          31 249 callgsubr
          -52 -45 callsubr
          -326 -230 100 callgsubr
          143 75 -143 vlineto
          -61 callgsubr
        </CharString>
        <CharString name="dvB_JxA">
          493 475 -116 -32 callsubr
          -298 343 callgsubr
          797 435 rmoveto
          -994 -97 789 -63 -214 -275 hlineto
          -91 callgsubr
          275 -142 -167 vlineto
          -80 6 -17 -65 callsubr
          154 hlineto
          31 21 7 15 12 hvcurveto
          -15 19 27 -7 35 hhcurveto
          106 12 callsubr
          188 75 -379 28 callgsubr
        </CharString>
        <CharString name="dvB_LA">
          495 177 351 -39 callsubr
          799 435 rmoveto
          -996 -97 794 -63 -91 277 callsubr
          -120 hlineto
          -76 -40 -32 -81 hvcurveto
          -38 vlineto
          63 callsubr
          97 98 -53 226 callsubr
          29 hlineto
          22 198 callgsubr
          52 -379 -3 callgsubr
          63 hlineto
          endchar
        </CharString>
        <CharString name="dvB_L_YA">
          842 1119 107 callsubr
          136 14 424 callgsubr
          57 61 callsubr
          -942 -188 -39 callsubr
          1146 435 rmoveto
          -1343 -97 893 362 callsubr
          -49 -45 callgsubr
          -202 277 callsubr
          -120 hlineto
          -76 -40 -32 -81 hvcurveto
          -17 vlineto
          -57 6 -35 -65 callsubr
          149 hlineto
          15 11 2 4 9 hvcurveto
          -57 4 32 -27 85 hhcurveto
          97 98 -53 -98 callgsubr
          190 -75 callgsubr
          29 hlineto
          22 364 callsubr
          -146 hlineto
          -94 callsubr
        </CharString>
        <CharString name="dvB_NA">
          482 551 201 -103 callgsubr
          -374 -28 -39 callsubr
          786 435 rmoveto
          -983 -97 779 -63 -301 105 callsubr
          -104 46 callgsubr
          16 12 hvcurveto
          -17 22 34 305 callgsubr
        </CharString>
        <CharString name="dvB_R">
          -131 -20 636 rmoveto
          -97 369 97 vlineto
          -173 -435 337 callsubr
          -140 176 rmoveto
          191 callgsubr
          53 hlineto
          -91 -135 rlineto
          142 hlineto
          94 139 rlineto
          104 vlineto
          -23 23 -23 55 -31 44 -52 78 rcurveline
          452 callgsubr
          endchar
        </CharString>
        <CharString name="dvB_RA">
          58 201 184 296 callgsubr
          258 452 rmoveto
          -559 -97 355 395 callsubr
          -52 73 rlineto
          452 callgsubr
          -177 268 callsubr
        </CharString>
        <CharString name="dvB_SA">
          481 758 357 336 callsubr
          -581 -188 -39 callsubr
          785 435 rmoveto
          -982 -97 533 hlineto
          -83 callgsubr
          -140 -139 hlineto
          63 callsubr
          98 callgsubr
          95 -140 -81 -17 callsubr
          148 282 -261 -95 callsubr
        </CharString>
        <CharString name="dvB_SHA">
          490 298 636 rmoveto
          -318 -97 318 hlineto
          -118 -188 -39 callsubr
          282 439 rmoveto
          98 callsubr
          -74 140 387 callsubr
          22 41 callsubr
          -147 69 callsubr
          56 -140 -71 hlineto
          63 callsubr
          98 callgsubr
          90 -140 -76 -17 callsubr
          131 60 vlineto
          104 45 30 74 hvcurveto
          186 vlineto
          67 -29 124 callsubr
        </CharString>
        <CharString name="dvB_TA">
          288 177 351 -39 callsubr
          595 435 rmoveto
          -792 -97 588 -63 -110 105 callsubr
          -52 vlineto
          63 callsubr
          214 callgsubr
          235 -86 callsubr
          66 384 callsubr
          hlineto
          endchar
        </CharString>
        <CharString name="dvB_VA">
          283 177 343 callgsubr
          587 435 rmoveto
          -784 -97 580 293 callsubr
          -61 hlineto
          -92 -30 -32 -67 hvcurveto
          -68 vlineto
          -80 6 -17 -65 callsubr
          154 hlineto
          31 21 7 15 12 hvcurveto
          -15 19 27 -7 35 hhcurveto
          61 269 callgsubr
        </CharString>
        <CharString name="dvB_YA">
          405 682 234 callgsubr
          -505 -188 -39 callsubr
          709 435 rmoveto
          -906 -97 456 hlineto
          31 6 -7 -26 hvcurveto
          -96 vlineto
          -18 -7 -5 -18 vhcurveto
          -112 -114 hlineto
          47 callgsubr
          16 12 hvcurveto
          -17 22 34 -8 49 116 callgsubr
        </CharString>
        <CharString name="dvC">
          -225 191 353 rmoveto
          21 7 5 18 vhcurveto
          29 97 -252 -97 73 119 callsubr
          180 97 -131 -98 callsubr
          -212 435 rmoveto
          -97 368 97 vlineto
          endchar
        </CharString>
        <CharString name="dvCA">
          4 485 636 109 callsubr
        </CharString>
        <CharString name="dvCH">
          180 661 539 rmoveto
          96 callsubr
          313 callsubr
          264 vlineto
          75 -43 24 -81 vhcurveto
          -69 hlineto
          -81 -43 -24 -75 hvcurveto
          -61 callsubr
          endchar
        </CharString>
        <CharString name="dvCHA">
          180 375 475 rmoveto
          -61 -6 -32 -27 -65 vvcurveto
          -61 callsubr
          166 hlineto
          286 hmoveto
          96 callsubr
          285 345 callsubr
        </CharString>
        <CharString name="dvCH_R">
          -461 endchar
        </CharString>
        <CharString name="dvCH_RA">
          180 375 475 rmoveto
          -61 -6 -32 -27 -65 vvcurveto
          -61 callsubr
          166 hlineto
          286 hmoveto
          96 callsubr
          59 hlineto
          -88 -145 rlineto
          -17 callgsubr
          -87 145 rlineto
          45 345 callsubr
        </CharString>
        <CharString name="dvCH_R_YA">
          -7 callsubr
          58 hlineto
          -88 -145 rlineto
          -17 callgsubr
          -87 145 rlineto
          46 hlineto
          93 44 -56 callgsubr
          273 vlineto
          7 183 vlineto
          19 191 callsubr
          -34 271 callgsubr
          -122 hlineto
          -94 callsubr
        </CharString>
        <CharString name="dvCH_YA">
          -7 callsubr
          313 callsubr
          273 vlineto
          7 183 vlineto
          19 191 callsubr
          -34 271 callgsubr
          -122 hlineto
          -94 callsubr
        </CharString>
        <CharString name="dvC_CA">
          237 718 636 rmoveto
          -739 -97 535 108 callgsubr
          -38 hlineto
          -19 417 callgsubr
          28 97 -213 -97 33 383 callgsubr
          -125 vlineto
          -79 callgsubr
          -34 hlineto
          -18 417 callgsubr
          7 97 -231 -97 72 hlineto
          -9 144 callsubr
          82 hlineto
          31 21 10 17 12 hvcurveto
          -19 19 30 -8 38 hhcurveto
          67 269 callgsubr
        </CharString>
        <CharString name="dvC_CHA">
          424 619 70 callgsubr
          286 hmoveto
          97 -925 -97 310 161 callsubr
          -240 149 callsubr
          18 14 3 6 12 hvcurveto
          -62 9 44 -25 82 hhcurveto
          285 345 callsubr
        </CharString>
        <CharString name="dvC_CH_VA">
          417 612 70 callgsubr
          -94 -638 rmoveto
          -17 -7 5 20 hvcurveto
          41 170 callsubr
          96 -73 hlineto
          -20 -7 -6 -18 vhcurveto
          304 638 rmoveto
          97 -918 -97 303 161 callsubr
          -236 -97 69 119 callsubr
          75 hlineto
          18 14 3 6 12 hvcurveto
          8 -58 39 -25 72 -4 rrcurveto
          -6 -8 -3 -10 -14 vvcurveto
          -57 vlineto
          -71 36 -27 68 vhcurveto
          81 hlineto
          22 14 447 callsubr
          -94 105 269 vlineto
          76 5 36 34 73 vvcurveto
          324 callgsubr
        </CharString>
        <CharString name="dvC_MA">
          456 733 432 rmoveto
          -89 107 89 hlineto
          -229 -338 rmoveto
          254 callsubr
          -40 20 callsubr
          111 -97 callsubr
          67 hlineto
          433 301 rmoveto
          -957 -97 524 -107 -98 105 callsubr
          -124 vlineto
          71 callsubr
          34 22 12 20 11 hvcurveto
          -22 21 36 -10 55 hhcurveto
          253 callsubr
          144 125 callsubr
        </CharString>
        <CharString name="dvC_NA">
          430 499 256 callgsubr
          -931 -97 727 -63 -301 105 callsubr
          -168 vlineto
          71 callsubr
          34 22 12 20 11 hvcurveto
          -22 21 36 -10 55 138 callsubr
        </CharString>
        <CharString name="dvC_R">
          -179 191 353 rmoveto
          233 callgsubr
          119 197 rlineto
          58 -86 vlineto
          -93 callgsubr
          -212 412 rmoveto
          -97 323 97 vlineto
          endchar
        </CharString>
        <CharString name="dvC_RA">
          6 485 636 rmoveto
          -506 -97 302 -314 hlineto
          -59 callsubr
          -39 -98 callsubr
          129 vlineto
          233 callgsubr
          98 420 callsubr
        </CharString>
        <CharString name="dvC_YA">
          353 630 27 callsubr
          89 13 vlineto
          92 26 38 67 hvcurveto
          105 239 callsubr
          -854 -97 404 hlineto
          31 306 callsubr
          -178 hlineto
          71 callsubr
          35 23 12 21 10 hvcurveto
          -23 22 37 -10 52 116 callgsubr
        </CharString>
        <CharString name="dvCandrabindu">
          143 callsubr
        </CharString>
        <CharString name="dvD">
          -16 254 hmoveto
          287 callgsubr
          -82 404 callsubr
          152 -40 callgsubr
          190 231 callgsubr
          hlineto
          -92 -14 callgsubr
          -186 vlineto
          -81 36 -32 100 vhcurveto
          145 callgsubr
          130 -153 234 callsubr
        </CharString>
        <CharString name="dvDA">
          -25 391 379 rmoveto
          160 65 97 -486 -97 282 -63 -96 vlineto
          -92 -29 -32 -67 hvcurveto
          -186 -40 callsubr
        </CharString>
        <CharString name="dvDA_mvR">
          250 callgsubr
          145 callgsubr
          -92 -8 199 callsubr
          -70 vlineto
          -67 375 callsubr
          201 97 -158 hlineto
          -18 -7 5 19 hvcurveto
          33 352 callgsubr
          18 vhcurveto
          104 374 -140 -82 hlineto
          -21 -8 -6 -18 vhcurveto
          -28 207 callgsubr
        </CharString>
        <CharString name="dvDD">
          -27 142 -61 19 callgsubr
          -301 697 rmoveto
          -97 250 -63 -66 vlineto
          -87 callgsubr
          162 153 85 97 hlineto
          endchar
        </CharString>
        <CharString name="dvDDA">
          -27 369 440 callsubr
          -474 -97 250 -63 -66 vlineto
          -87 callgsubr
          endchar
        </CharString>
        <CharString name="dvDDH">
          14 170 -61 19 callgsubr
          89 440 rmoveto
          160 97 97 -515 -97 279 -63 -93 vlineto
          -92 -29 -32 -67 hvcurveto
          -55 callgsubr
          endchar
        </CharString>
        <CharString name="dvDDHA">
          14 398 333 callgsubr
          97 97 -515 -97 279 -63 -93 vlineto
          -92 -29 -32 -67 hvcurveto
          -55 callgsubr
          endchar
        </CharString>
        <CharString name="dvDDH_DDHA">
          14 398 333 callgsubr
          97 97 -515 -97 279 271 callsubr
          -230 vlineto
          -40 16 -17 -5 callgsubr
          -4 -16 -17 -35 vvcurveto
          -160 vlineto
          -81 36 -32 100 vhcurveto
          122 12 callsubr
          34 178 callsubr
          -78 -97 48 242 callsubr
          -14 392 callsubr
          -62 -88 callgsubr
          172 -86 callsubr
          93 12 callsubr
          205 callsubr
        </CharString>
        <CharString name="dvDDH_R">
          14 162 -165 19 callgsubr
          97 544 57 callsubr
        </CharString>
        <CharString name="dvDDH_RA">
          14 398 379 57 callsubr
        </CharString>
        <CharString name="dvDDH_VA">
          15 280 72 rmoveto
          -93 vlineto
          -23 -9 -6 -20 vhcurveto
          -26 hlineto
          -19 -9 5 23 hvcurveto
          94 vlineto
          201 307 rmoveto
          160 98 97 -516 -97 279 271 callsubr
          -206 vlineto
          -30 6 -22 14 -17 vhcurveto
          -144 422 callsubr
          41 316 callsubr
          -90 139 318 vlineto
          19 18 8 28 38 vvcurveto
          205 callsubr
        </CharString>
        <CharString name="dvDDH_YA">
          567 844 195 303 callgsubr
          -146 -95 callgsubr
          39 22 callgsubr
          34 vlineto
          67 -26 39 -92 vhcurveto
          -253 68 446 hlineto
          146 callgsubr
          -1068 -97 279 -63 -93 hlineto
          -92 -14 callgsubr
          -55 callgsubr
          399 246 callsubr
          -78 -79 callsubr
        </CharString>
        <CharString name="dvDDHxA">
          14 188 -169 -32 callsubr
          210 432 rmoveto
          160 97 97 -515 -97 279 -63 -93 vlineto
          -92 -29 -32 -67 hvcurveto
          -55 callgsubr
          endchar
        </CharString>
        <CharString name="dvDD_DDA">
          99 callsubr
          -29 vlineto
          -53 23 -31 88 vhcurveto
          114 hlineto
          18 249 callsubr
          -23 vlineto
          -17 -7 -6 -18 vhcurveto
          -64 hlineto
          -14 -8 5 18 hvcurveto
          11 -139 -25 vlineto
          -67 446 callsubr
          147 200 callsubr
          52 vlineto
          67 -29 32 -93 vhcurveto
          -103 141 callsubr
          21 226 callgsubr
        </CharString>
        <CharString name="dvDD_DDHA">
          99 callsubr
          -160 vlineto
          -81 36 -32 100 vhcurveto
          122 12 callsubr
          36 178 callsubr
          -78 -97 48 113 callgsubr
          -16 vlineto
          -78 callsubr
          -62 -88 callgsubr
          171 226 callgsubr
        </CharString>
        <CharString name="dvDD_R">
          -27 142 -165 19 callgsubr
          -301 801 rmoveto
          168 callsubr
          68 -7 vhcurveto
          -89 -146 376 callgsubr
          147 rlineto
          64 8 21 32 275 callgsubr
          85 97 hlineto
          endchar
        </CharString>
        <CharString name="dvDD_RA">
          -27 369 440 callsubr
          -474 168 callsubr
          68 -7 vhcurveto
          -89 -146 376 callgsubr
          147 rlineto
          64 8 21 32 57 vvcurveto
          105 vlineto
          67 -29 31 -92 vhcurveto
          -60 hlineto
          -18 -7 5 19 hvcurveto
          37 301 callgsubr
        </CharString>
        <CharString name="dvDD_VA">
          -3 278 -24 rmoveto
          -21 -8 -5 -17 vhcurveto
          -56 hlineto
          -17 -7 5 20 hvcurveto
          44 -15 callgsubr
          47 hlineto
          14 10 2 3 9 hvcurveto
          119 336 rmoveto
          153 81 97 -498 -97 277 -63 -94 vlineto
          88 callsubr
          -47 vlineto
          -67 375 callsubr
          90 hlineto
          18 7 -5 -17 hvcurveto
          -52 vlineto
          -17 292 callsubr
          -59 hlineto
          -14 371 callgsubr
          30 -140 -73 vlineto
          -35 16 -15 -76 callsubr
          -47 vlineto
          -65 29 -33 93 vhcurveto
          78 hlineto
          22 14 4 10 9 hvcurveto
          -94 140 442 vlineto
          67 -30 32 -92 vhcurveto
          -90 hlineto
          -18 -7 5 17 hvcurveto
          20 301 callgsubr
        </CharString>
        <CharString name="dvDD_YA">
          518 795 202 395 callgsubr
          39 22 callgsubr
          34 vlineto
          67 -26 39 -92 vhcurveto
          -233 61 426 hlineto
          146 callgsubr
          -1019 -97 250 -63 -66 hlineto
          -87 callgsubr
          354 246 callsubr
          -85 139 vlineto
          -2 539 rlineto
          67 hlineto
          endchar
        </CharString>
        <CharString name="dvDDxA">
          -27 157 -177 -32 callsubr
          212 447 rmoveto
          153 85 97 -474 -97 250 -63 -66 vlineto
          -87 callgsubr
          endchar
        </CharString>
        <CharString name="dvDH">
          -69 196 420 rmoveto
          101 -86 callsubr
          8 23 callsubr
          -39 79 61 vlineto
          68 -37 30 -78 vhcurveto
          -48 88 callgsubr
          -142 vlineto
          -35 16 -15 28 -4 vhcurveto
          11 callsubr
          342 97 -291 -49 callgsubr
          endchar
        </CharString>
        <CharString name="dvDHA">
          96 582 636 rmoveto
          391 callgsubr
          -330 vlineto
          -53 callgsubr
          163 -54 callsubr
        </CharString>
        <CharString name="dvDH_MA">
          568 845 423 rmoveto
          -107 116 107 hlineto
          -247 278 callsubr
          102 -86 callsubr
          67 hlineto
          451 310 rmoveto
          -671 -97 220 -116 -98 105 callsubr
          -115 vlineto
          -53 callgsubr
          188 hlineto
          28 16 9 16 7 348 callgsubr
          86 407 callsubr
          107 -326 -95 callsubr
        </CharString>
        <CharString name="dvDH_NA">
          524 593 201 48 callsubr
          -628 400 callsubr
          423 -63 -301 105 callsubr
          -168 vlineto
          -53 callgsubr
          188 hlineto
          28 16 9 16 7 348 callgsubr
          81 12 callsubr
          188 69 235 callgsubr
        </CharString>
        <CharString name="dvDH_N_YA">
          877 1154 123 callsubr
          765 294 rmoveto
          -980 -97 530 362 callsubr
          -44 -45 callgsubr
          -420 105 callsubr
          -131 vlineto
          -53 callgsubr
          188 hlineto
          28 16 9 16 7 348 callgsubr
          81 12 callsubr
          151 77 -151 vlineto
          -94 callsubr
        </CharString>
        <CharString name="dvDH_R">
          -91 57 300 rmoveto
          -100 vlineto
          393 callgsubr
          73 hlineto
          23 36 -122 -194 450 callgsubr
          -178 422 callgsubr
          57 281 callsubr
          91 -86 callsubr
          8 23 callsubr
          -39 79 61 vlineto
          68 -37 30 -78 vhcurveto
          -48 88 callgsubr
          -132 39 callsubr
          endchar
        </CharString>
        <CharString name="dvDH_RA">
          96 582 636 102 callgsubr
          -132 vlineto
          -35 16 -15 28 -4 vhcurveto
          220 callsubr
        </CharString>
        <CharString name="dvDH_VA">
          323 804 636 rmoveto
          -426 -97 224 -337 hlineto
          -21 -8 -6 -18 vhcurveto
          -33 hlineto
          -18 -7 5 21 hvcurveto
          155 vlineto
          18 7 5 18 vhcurveto
          18 97 -61 hlineto
          -92 -30 -32 -67 hvcurveto
          -168 vlineto
          -53 callgsubr
          188 hlineto
          27 16 8 16 8 hvcurveto
          -17 19 28 -7 37 hhcurveto
          -28 callgsubr
          -92 393 callsubr
          vlineto
          endchar
        </CharString>
        <CharString name="dvDH_YA">
          447 723 56 callgsubr
          205 97 rmoveto
          -550 -97 99 hlineto
          32 306 callsubr
          -178 hlineto
          -53 callgsubr
          188 hlineto
          29 16 9 18 7 hvcurveto
          -19 23 34 -8 47 hhcurveto
          165 35 callsubr
        </CharString>
        <CharString name="dvD_BA">
          36 325 22 397 callsubr
          -133 -147 rmoveto
          -20 -63 callsubr
          90 vlineto
          2 vlineto
          112 -118 rlineto
          174 384 344 callsubr
          -167 vlineto
          -35 16 -15 -76 callsubr
          -94 422 callsubr
          113 316 callsubr
          -94 139 485 -139 -55 vlineto
          -20 -7 -5 -19 vhcurveto
          -89 20 callsubr
          95 -40 callgsubr
          endchar
        </CharString>
        <CharString name="dvD_BHA">
          168 183 163 rmoveto
          243 callgsubr
          -37 -97 20 242 callsubr
          -279 127 70 213 97 -213 vlineto
          401 329 rmoveto
          169 65 97 -669 -97 464 -72 -95 vlineto
          88 callsubr
          -167 vlineto
          -81 37 -32 100 vhcurveto
          145 callgsubr
          -158 139 346 -139 -78 259 callgsubr
          -27 -95 callgsubr
          133 -40 callgsubr
          endchar
        </CharString>
        <CharString name="dvD_B_RA">
          73 325 25 397 callsubr
          -161 -32 rmoveto
          3 vlineto
          115 -121 rlineto
          -87 hlineto
          -20 -63 callsubr
          286 358 344 callsubr
          -165 vlineto
          -34 16 -16 -5 callgsubr
          -3 -16 -15 -35 vvcurveto
          -96 422 callsubr
          21 hlineto
          -119 -127 rlineto
          126 hlineto
          131 141 rlineto
          -95 139 488 -139 -56 428 callgsubr
          -19 vhcurveto
          -89 20 callsubr
          92 -40 callgsubr
          endchar
        </CharString>
        <CharString name="dvD_DA">
          -14 384 333 callgsubr
          83 97 -497 -97 274 -63 -111 vlineto
          -79 265 callgsubr
          -64 vlineto
          -34 16 -16 -76 callsubr
          -67 vlineto
          -67 36 -30 79 vhcurveto
          83 hlineto
          23 15 -66 callsubr
          -93 287 callgsubr
          -82 vlineto
          -59 callsubr
          -75 -98 callsubr
          23 -15 callgsubr
          58 97 -58 -98 callsubr
          22 301 callgsubr
        </CharString>
        <CharString name="dvD_DHA">
          234 163 85 rmoveto
          21 183 callgsubr
          59 97 -59 -95 callgsubr
          22 -86 callsubr
          59 97 -89 88 callgsubr
          -64 vlineto
          -34 16 -16 -76 callsubr
          -63 vlineto
          -68 36 -30 78 vhcurveto
          273 97 -243 -95 callgsubr
          487 313 353 callsubr
          -185 vlineto
          175 callsubr
        </CharString>
        <CharString name="dvD_GA">
          247 callsubr
          -129 377 callgsubr
          128 15 vlineto
          23 15 -66 callsubr
          -255 126 447 290 callsubr
        </CharString>
        <CharString name="dvD_GHA">
          234 650 379 353 callsubr
          -1 -135 vlineto
          145 callsubr
          -64 vlineto
          -34 16 -16 -76 callsubr
          -63 vlineto
          -68 36 -30 78 vhcurveto
          273 97 -243 -95 callgsubr
          19 -75 callgsubr
          59 97 -59 -95 callgsubr
          22 -86 callsubr
          105 -87 hlineto
          175 callsubr
        </CharString>
        <CharString name="dvD_G_RA">
          247 callsubr
          -87 377 callgsubr
          86 15 vlineto
          23 15 -66 callsubr
          -122 vlineto
          -247 -228 rlineto
          126 hlineto
          121 110 rlineto
          -76 126 508 290 callsubr
        </CharString>
        <CharString name="dvD_MA">
          204 481 179 rmoveto
          -89 114 -140 -52 hlineto
          359 callgsubr
          -7 5 21 hvcurveto
          113 vlineto
          21 8 5 19 vhcurveto
          190 160 91 hlineto
          146 callgsubr
          -705 -97 270 -63 -95 105 callsubr
          -147 vlineto
          -81 37 -32 100 vhcurveto
          36 316 callsubr
          -130 140 82 89 -82 -79 callsubr
        </CharString>
        <CharString name="dvD_NA">
          250 callgsubr
          50 hlineto
          23 15 -66 callsubr
          -81 -88 vlineto
          -68 -36 -26 -73 hvcurveto
          -51 105 36 -15 callgsubr
          62 -114 126 475 -126 -82 hlineto
          -59 callsubr
          -42 207 callgsubr
        </CharString>
        <CharString name="dvD_R">
          -25 254 hmoveto
          287 callgsubr
          -59 404 callsubr
          129 -40 callgsubr
          190 231 callgsubr
          hlineto
          -92 -14 callgsubr
          -177 vlineto
          -57 23 435 callsubr
          99 161 rlineto
          130 -165 234 callsubr
        </CharString>
        <CharString name="dvD_RA">
          185 callgsubr
          -177 vlineto
          -57 23 435 callsubr
          99 161 rlineto
          -104 287 callgsubr
          -59 380 callgsubr
          -8 5 21 hvcurveto
          129 -40 callgsubr
          endchar
        </CharString>
        <CharString name="dvD_VA">
          -5 243 256 callsubr
          217 270 rmoveto
          160 62 97 -506 -97 305 -63 -122 199 callsubr
          117 callsubr
        </CharString>
        <CharString name="dvD_YA">
          112 373 193 rmoveto
          -20 -28 callsubr
          -139 hlineto
          -18 -7 5 20 hvcurveto
          26 vlineto
          21 7 4 18 vhcurveto
          65 90 -65 hlineto
          -18 -7 4 20 hvcurveto
          23 vlineto
          17 7 5 18 vhcurveto
          91 137 74 hlineto
          146 callgsubr
          -580 -97 175 -54 -14 hlineto
          -78 -37 -28 -63 hvcurveto
          -55 vlineto
          -32 16 -15 28 -2 vhcurveto
          -5 vlineto
          -28 -3 -16 -14 -32 vvcurveto
          -67 vlineto
          -63 37 -28 78 vhcurveto
          168 hlineto
          23 311 callsubr
          539 64 vlineto
          endchar
        </CharString>
        <CharString name="dvE">
          11 492 636 rmoveto
          -512 38 callgsubr
        </CharString>
        <CharString name="dvEcandra">
          11 326 672 rmoveto
          96 34 32 61 hvcurveto
          79 -117 103 callgsubr
          333 -36 rmoveto
          -512 38 callgsubr
        </CharString>
        <CharString name="dvEight">
          24 callsubr
        </CharString>
        <CharString name="dvEyelash">
          -129 352 387 rmoveto
          -79 199 callgsubr
          47 -135 -62 vlineto
          -67 26 -38 93 vhcurveto
          120 hlineto
          -372 346 rmoveto
          -97 372 97 vlineto
          endchar
        </CharString>
        <CharString name="dvEyelash_HA">
          183 600 333 callgsubr
          67 97 -687 -97 480 -63 -100 vlineto
          -98 -23 -34 -76 hvcurveto
          -54 -98 callgsubr
          59 -134 -73 vlineto
          -67 26 -39 92 vhcurveto
          139 -4 hlineto
          -28 -4 -16 -15 -34 vvcurveto
          -99 vlineto
          -81 44 -32 93 vhcurveto
          228 97 -200 -98 callsubr
          70 -15 callgsubr
          33 hlineto
          19 8 263 callgsubr
        </CharString>
        <CharString name="dvEyelash_YA">
          217 494 56 callgsubr
          146 callgsubr
          -718 -97 268 hlineto
          411 callsubr
          -96 -45 callgsubr
          -83 199 callgsubr
          47 -134 -62 vlineto
          -67 26 -38 92 vhcurveto
          13 -99 hlineto
          -94 callsubr
        </CharString>
        <CharString name="dvFive">
          111 callgsubr
        </CharString>
        <CharString name="dvFour">
          184 callsubr
        </CharString>
        <CharString name="dvG">
          -31 197 175 -90 callsubr
          229 461 rmoveto
          -473 -97 -96 callsubr
          63 vlineto
          endchar
        </CharString>
        <CharString name="dvGA">
          201 197 175 -90 callsubr
          458 461 rmoveto
          -702 -97 -96 callsubr
          88 -539 -79 callsubr
        </CharString>
        <CharString name="dvGH">
          -192 386 428 callsubr
          -406 -97 69 vlineto
          -5 -6 -2 -8 -11 vvcurveto
          -103 49 callgsubr
          207 97 -178 -95 callgsubr
          81 -75 callgsubr
          43 97 -43 -95 callgsubr
          75 vlineto
          26 7 7 26 vhcurveto
          endchar
        </CharString>
        <CharString name="dvGHA">
          36 313 -22 callgsubr
          -71 -95 callgsubr
          81 -75 callgsubr
          43 97 -43 -95 callgsubr
          75 vlineto
          29 8 4 34 vhcurveto
          89 hlineto
          146 callgsubr
          -537 -97 70 hlineto
          389 callsubr
          -101 49 callgsubr
          90 -54 callsubr
        </CharString>
        <CharString name="dvGH_MA">
          479 756 283 callsubr
          278 callsubr
          111 -86 callsubr
          67 hlineto
          -220 -126 303 callgsubr
          -66 -95 callgsubr
          81 -75 callgsubr
          43 97 -43 -95 callgsubr
          75 vlineto
          26 7 7 26 vhcurveto
          313 -107 -98 105 callsubr
          652 303 rmoveto
          -980 -97 69 hlineto
          -5 -6 -2 -8 -11 vvcurveto
          -103 49 callgsubr
          94 hlineto
          31 22 10 18 11 hvcurveto
          -20 22 35 -8 51 hhcurveto
          87 hlineto
          99 37 callsubr
          144 88 324 callsubr
        </CharString>
        <CharString name="dvGH_NA">
          450 731 476 rmoveto
          -301 105 callsubr
          -168 vlineto
          -79 callgsubr
          -66 -95 callgsubr
          81 -75 callgsubr
          43 97 -43 -95 callgsubr
          75 vlineto
          26 7 7 26 vhcurveto
          516 hlineto
          -208 -338 48 callsubr
          -955 -97 69 hlineto
          -5 -6 -2 -8 -11 vvcurveto
          -103 49 callgsubr
          94 hlineto
          31 22 10 18 11 hvcurveto
          -20 22 35 -8 51 138 callsubr
        </CharString>
        <CharString name="dvGH_R">
          -137 346 428 callsubr
          -366 -97 70 vlineto
          389 callsubr
          -95 vlineto
          -35 17 -15 27 -4 400 callgsubr
          -3 -17 -15 -35 vvcurveto
          -106 vlineto
          -67 33 -32 69 vhcurveto
          33 hlineto
          -99 -158 450 callgsubr
          -138 422 callgsubr
          63 -75 callgsubr
          43 97 -43 -95 callgsubr
          70 vlineto
          29 8 4 34 vhcurveto
          endchar
        </CharString>
        <CharString name="dvGH_RA">
          38 314 225 rmoveto
          -59 callsubr
          -80 -95 callgsubr
          63 -75 callgsubr
          43 97 -43 -95 callgsubr
          70 vlineto
          29 8 4 34 vhcurveto
          90 hlineto
          205 97 rmoveto
          -539 -97 70 hlineto
          389 callsubr
          -96 vlineto
          -34 17 -16 27 -3 400 callgsubr
          -4 -17 -15 -34 vvcurveto
          -106 vlineto
          -67 33 -32 69 vhcurveto
          23 367 callsubr
          65 vlineto
          endchar
        </CharString>
        <CharString name="dvGH_YA">
          371 654 25 callsubr
          -112 -178 hlineto
          -79 callgsubr
          -66 -95 callgsubr
          81 -75 callgsubr
          43 97 -43 -95 callgsubr
          75 vlineto
          26 7 7 26 vhcurveto
          193 hlineto
          31 249 callgsubr
          407 130 rmoveto
          -872 -97 69 hlineto
          -5 -6 -2 -8 -11 vvcurveto
          -103 49 callgsubr
          94 hlineto
          32 22 11 18 11 hvcurveto
          -20 23 35 -9 49 hhcurveto
          165 hlineto
          21 14 -66 callsubr
          -92 -3 callgsubr
          59 vlineto
          endchar
        </CharString>
        <CharString name="dvG_BA">
          492 613 351 90 callsubr
          -416 -26 -90 callsubr
          752 461 rmoveto
          -996 -97 -96 callsubr
          382 -214 vlineto
          157 callsubr
        </CharString>
        <CharString name="dvG_BHA">
          642 197 175 -90 callsubr
          -244 364 rmoveto
          -96 callsubr
          55 97 -465 vlineto
          711 -435 51 callsubr
        </CharString>
        <CharString name="dvG_BH_YA">
          987 197 175 -90 callsubr
          -244 364 rmoveto
          -96 callsubr
          55 97 -465 vlineto
          1270 -427 -18 callgsubr
        </CharString>
        <CharString name="dvG_DA">
          409 197 175 -90 callsubr
          599 204 445 callsubr
          -908 -97 271 -81 -71 vlineto
          -104 -46 -30 -74 hvcurveto
          -163 vlineto
          -81 37 252 callgsubr
          348 294 -63 -96 199 callsubr
          -186 -40 callsubr
        </CharString>
        <CharString name="dvG_DHA">
          515 197 175 -90 callsubr
          -244 364 rmoveto
          -96 callsubr
          57 97 -467 vlineto
          1021 hmoveto
          391 callgsubr
          -330 vlineto
          -53 callgsubr
          163 -54 callsubr
        </CharString>
        <CharString name="dvG_DH_VA">
          744 197 175 -90 callsubr
          -244 364 rmoveto
          -96 callsubr
          57 97 -467 vlineto
          1245 hmoveto
          -428 -97 223 148 callgsubr
          -18 -8 5 21 hvcurveto
          162 vlineto
          18 8 5 18 252 callsubr
          -168 vlineto
          66 callsubr
          28 20 7 14 11 hvcurveto
          -14 19 26 -7 35 hhcurveto
          62 hlineto
          22 15 407 callgsubr
        </CharString>
        <CharString name="dvG_DH_YA">
          865 197 175 -90 callsubr
          -244 364 rmoveto
          -96 callsubr
          57 97 -467 vlineto
          1162 -427 303 callgsubr
          -146 20 callsubr
          89 14 vlineto
          92 -19 callsubr
          86 hlineto
          146 callgsubr
          -549 -97 99 hlineto
          31 7 213 callgsubr
          -178 hlineto
          66 callsubr
          30 20 8 16 10 hvcurveto
          -17 23 33 -7 44 6 callgsubr
        </CharString>
        <CharString name="dvG_GA">
          626 622 175 -90 callsubr
          -452 hmoveto
          -19 -63 callsubr
          129 vlineto
          26 5 5 26 vhcurveto
          50 -160 hlineto
          -78 callsubr
          883 461 rmoveto
          -1127 -97 -96 callsubr
          286 -81 -71 vlineto
          -104 -46 -30 -74 hvcurveto
          -163 vlineto
          -81 37 252 callgsubr
          348 88 -539 -79 callsubr
        </CharString>
        <CharString name="dvG_GHA">
          461 746 -22 callgsubr
          -71 -95 callgsubr
          81 -75 callgsubr
          43 97 -43 -95 callgsubr
          75 vlineto
          29 8 4 34 vhcurveto
          89 hlineto
          -549 -364 -90 callsubr
          726 461 rmoveto
          -970 -97 -96 callsubr
          93 vlineto
          389 callsubr
          -101 49 callgsubr
          90 -54 callsubr
        </CharString>
        <CharString name="dvG_JA">
          621 197 175 -90 callsubr
          884 461 rmoveto
          -1128 -97 -96 callsubr
          513 -63 -214 -275 vlineto
          -89 callgsubr
          75 -379 28 callgsubr
        </CharString>
        <CharString name="dvG_LA">
          629 197 175 -90 callsubr
          886 461 rmoveto
          -1130 -97 -96 callsubr
          518 -63 -91 -69 callgsubr
          52 15 callsubr
          62 hlineto
          endchar
        </CharString>
        <CharString name="dvG_MA">
          642 919 432 rmoveto
          -89 107 89 hlineto
          -228 -329 -85 callsubr
          -494 -160 -90 callsubr
          899 461 rmoveto
          -1143 -97 -96 callsubr
          301 -107 -99 vlineto
          238 callgsubr
        </CharString>
        <CharString name="dvG_NA">
          616 685 201 -103 callgsubr
          -488 -204 -90 callsubr
          873 461 rmoveto
          -1117 -97 -96 callsubr
          503 -63 -301 vlineto
          -92 -29 -32 -67 hvcurveto
          -186 vlineto
          -81 36 196 callgsubr
        </CharString>
        <CharString name="dvG_NNA">
          628 683 201 rmoveto
          -91 callgsubr
          338 77 vlineto
          -486 -364 -90 callsubr
          885 461 rmoveto
          -1129 -97 -96 callsubr
          77 -348 vlineto
          131 callsubr
          82 -539 28 callgsubr
        </CharString>
        <CharString name="dvG_N_YA">
          966 1242 -60 callsubr
          141 13 vlineto
          92 26 39 67 hvcurveto
          52 vlineto
          17 -4 13 -8 9 vhcurveto
          86 hlineto
          -561 -338 72 callsubr
          -484 -167 -90 callsubr
          1223 461 rmoveto
          -1467 -97 -96 callsubr
          606 vlineto
          411 callsubr
          -44 -45 callsubr
          -421 hlineto
          -92 -14 callgsubr
          -149 38 callsubr
        </CharString>
        <CharString name="dvG_R">
          63 306 -71 rmoveto
          215 223 rlineto
          141 vlineto
          -353 -364 rlineto
          29 323 85 callgsubr
          -244 384 rmoveto
          -97 271 -63 -71 vlineto
          -104 -46 -30 -74 hvcurveto
          -104 vlineto
          -81 37 252 callgsubr
          271 131 97 vlineto
          endchar
        </CharString>
        <CharString name="dvG_RA">
          200 197 252 76 callgsubr
        </CharString>
        <CharString name="dvG_R_YA">
          543 820 -46 callsubr
          -623 -287 85 callgsubr
          800 384 rmoveto
          -1044 102 callsubr
          271 184 vlineto
          8 callsubr
          -141 hlineto
          -307 -317 rlineto
          138 hlineto
          186 193 rlineto
          -31 20 39 -13 60 6 callgsubr
        </CharString>
        <CharString name="dvG_SA">
          615 892 357 rmoveto
          -84 197 callgsubr
          79 hlineto
          -695 -364 -90 callsubr
          872 461 rmoveto
          -1116 -97 -96 callsubr
          257 vlineto
          26 7 -7 -26 hvcurveto
          -116 vlineto
          -26 -8 -7 -25 vhcurveto
          -37 107 -139 -365 244 callgsubr
          282 -261 -95 callsubr
        </CharString>
        <CharString name="dvG_VA">
          417 197 175 -90 callsubr
          674 461 rmoveto
          -918 -97 -96 callsubr
          304 -337 vlineto
          68 callgsubr
          -92 -82 callgsubr
          endchar
        </CharString>
        <CharString name="dvG_YA">
          539 816 -46 callsubr
          -619 -364 -90 callsubr
          796 461 rmoveto
          -1040 -97 -96 callsubr
          180 vlineto
          31 6 -7 -26 hvcurveto
          -96 vlineto
          -18 -7 -5 -18 vhcurveto
          -111 -196 hlineto
          -94 callsubr
        </CharString>
        <CharString name="dvGx">
          -31 153 -116 -32 callsubr
          44 175 -90 callsubr
          229 461 rmoveto
          -473 -97 -96 callsubr
          63 vlineto
          endchar
        </CharString>
        <CharString name="dvGxA">
          201 155 -108 -32 callsubr
          42 167 -90 callsubr
          458 461 rmoveto
          -702 -97 -96 callsubr
          88 -539 -79 callsubr
        </CharString>
        <CharString name="dvGx_R">
          63 197 252 85 callgsubr
          166 287 rmoveto
          131 97 -541 102 callsubr
          131 25 rmoveto
          -353 -364 rlineto
          138 hlineto
          215 223 rlineto
          -100 -174 315 callsubr
          endchar
        </CharString>
        <CharString name="dvGx_RA">
          200 393 -164 -32 callsubr
          -196 300 76 callgsubr
        </CharString>
        <CharString name="dvH">
          -10 174 -61 19 callgsubr
          -333 697 rmoveto
          -97 286 -63 -100 vlineto
          -92 -29 -32 -67 hvcurveto
          -55 14 callgsubr
          196 160 68 97 hlineto
          endchar
        </CharString>
        <CharString name="dvHA">
          -10 406 333 callgsubr
          68 97 -494 -97 286 -63 -100 vlineto
          -92 -29 -32 -67 hvcurveto
          -55 14 callgsubr
          endchar
        </CharString>
        <CharString name="dvHA_mU">
          -10 406 333 callgsubr
          68 97 -494 -97 286 -63 -100 199 callsubr
          -55 vlineto
          -34 16 -16 -76 callsubr
          -99 vlineto
          -81 28 -32 108 vhcurveto
          60 402 callsubr
          -49 hlineto
          -22 -14 6 18 -11 373 callsubr
          124 hlineto
          77 39 -56 callgsubr
          48 vlineto
          81 -39 31 -77 vhcurveto
          -86 25 callgsubr
          endchar
        </CharString>
        <CharString name="dvHA_mUU">
          -7 458 -3 rmoveto
          69 -46 -28 31 -97 hhcurveto
          -77 25 callgsubr
          196 160 68 97 -494 274 callgsubr
          -106 vlineto
          -45 8 -28 26 -13 vhcurveto
          -2 -10 -1 -12 -14 vvcurveto
          -48 vlineto
          -81 33 -32 76 vhcurveto
          105 98 -50 310 callgsubr
          34 hlineto
          22 12 -7 -19 12 hvcurveto
          94 -150 rlineto
          151 hlineto
          endchar
        </CharString>
        <CharString name="dvHA_mvR">
          -22 394 289 callgsubr
          68 97 -482 230 callsubr
          -52 vlineto
          -34 16 -16 -76 callsubr
          -102 200 callgsubr
          228 83 -199 -95 callgsubr
          115 -75 callgsubr
          41 hlineto
          11 4 -4 -8 hvcurveto
          -20 -32 -20 -32 vvcurveto
          -30 21 -15 41 vhcurveto
          95 63 -43 hlineto
          -11 -4 4 8 hvcurveto
          21 35 23 37 vvcurveto
          34 -23 15 -44 vhcurveto
          -91 159 callgsubr
          17 hvcurveto
          16 425 callgsubr
          endchar
        </CharString>
        <CharString name="dvH_LA">
          126 394 289 callgsubr
          216 97 -630 228 callsubr
          216 82 -187 159 callgsubr
          22 hvcurveto
          247 -75 callgsubr
          232 113 callgsubr
          -12 -44 vlineto
          -23 -9 -9 -14 -6 hvcurveto
          -1 hlineto
          16 -5 -13 7 -29 hhcurveto
          -29 hlineto
          -52 -30 -19 -52 hvcurveto
          -74 vlineto
          -52 30 -20 52 vhcurveto
          57 65 -48 hlineto
          -17 -4 4 17 hvcurveto
          46 vlineto
          17 4 5 17 vhcurveto
          11 hlineto
          17 4 -5 -17 hvcurveto
          -35 70 35 vlineto
          17 4 5 17 vhcurveto
          27 -154 79 244 hlineto
          55 -28 28 -66 vhcurveto
          -244 93 callsubr
          endchar
        </CharString>
        <CharString name="dvH_MA">
          215 494 263 rmoveto
          -91 hlineto
          35 -11 -29 18 -55 hhcurveto
          -98 93 callsubr
          196 160 88 hlineto
          146 callgsubr
          -718 274 callgsubr
          -99 vlineto
          -81 43 -32 93 vhcurveto
          228 97 -199 338 callsubr
          -58 140 49 85 -184 -79 callsubr
        </CharString>
        <CharString name="dvH_NA">
          20 394 289 callgsubr
          107 97 -521 230 callsubr
          -46 vlineto
          -34 16 -16 -76 callsubr
          -108 200 callgsubr
          209 83 -180 hlineto
          -19 -7 349 callgsubr
          7 5 19 vhcurveto
          138 113 callgsubr
          -9 -64 vlineto
          -59 -32 -21 -55 hvcurveto
          -25 85 20 vlineto
          19 5 6 21 vhcurveto
          44 -58 78 133 hlineto
          55 -27 28 -66 vhcurveto
          -150 379 callsubr
        </CharString>
        <CharString name="dvH_NNA">
          74 331 190 rmoveto
          -12 -1 -5 -11 vhcurveto
          -11 hlineto
          -11 -2 5 12 hvcurveto
          75 36 vlineto
          63 121 rmoveto
          153 161 97 -575 230 callsubr
          -46 vlineto
          -34 16 -16 -76 callsubr
          -108 200 callgsubr
          216 83 -187 hlineto
          -19 -7 349 callgsubr
          7 5 19 vhcurveto
          12 -82 hlineto
          -37 20 -24 44 vhcurveto
          54 hlineto
          45 19 24 37 hvcurveto
          82 12 vlineto
          18 8 -5 -21 hvcurveto
          -59 80 69 vlineto
          55 -28 28 -66 vhcurveto
          -218 379 callsubr
        </CharString>
        <CharString name="dvH_R">
          27 199 -61 19 callgsubr
          -358 697 rmoveto
          56 callsubr
          184 153 114 97 hlineto
          endchar
        </CharString>
        <CharString name="dvH_RA">
          27 394 289 callgsubr
          114 97 -528 56 callsubr
          endchar
        </CharString>
        <CharString name="dvH_VA">
          74 394 289 callgsubr
          164 97 -578 228 callsubr
          202 82 -173 159 callgsubr
          22 hvcurveto
          247 -75 callgsubr
          176 113 callgsubr
          -113 vlineto
          -79 callgsubr
          -62 hlineto
          -17 -4 4 18 hvcurveto
          17 vlineto
          17 4 4 17 vhcurveto
          46 64 -56 hlineto
          -52 -29 -20 -51 hvcurveto
          -46 vlineto
          -52 29 -20 52 vhcurveto
          74 hlineto
          14 11 3 6 7 hvcurveto
          -43 79 261 vlineto
          55 -28 28 -66 vhcurveto
          -188 93 callsubr
          endchar
        </CharString>
        <CharString name="dvH_YA">
          219 488 236 303 callgsubr
          -64 hlineto
          5 9 2 11 11 vvcurveto
          8 vlineto
          55 -25 32 -69 vhcurveto
          -93 159 callgsubr
          16 hvcurveto
          15 425 callgsubr
          184 153 94 hlineto
          146 callgsubr
          -712 -97 274 -63 -88 hlineto
          -92 -14 callgsubr
          -50 vlineto
          -35 16 -15 -76 callsubr
          -104 200 callgsubr
          216 83 -187 -95 callgsubr
          126 -75 callgsubr
          70 hlineto
          17 6 -5 -16 hvcurveto
          -17 vlineto
          -16 -6 -5 -17 vhcurveto
          -43 -66 219 hlineto
          14 11 3 6 7 hvcurveto
          -145 -95 callsubr
        </CharString>
        <CharString name="dvI">
          -36 375 289 callgsubr
          70 97 -465 17 callgsubr
          endchar
        </CharString>
        <CharString name="dvII">
          -36 448 711 rmoveto
          89 -91 vlineto
          -92 -30 -31 -67 hvcurveto
          -66 -255 17 callgsubr
          178 153 70 97 -70 52 hlineto
          18 7 5 18 vhcurveto
          endchar
        </CharString>
        <CharString name="dvII_Anusvara">
          -36 375 767 rmoveto
          19 7 4 19 vhcurveto
          60 90 -104 hlineto
          -92 -30 -31 -67 hvcurveto
          -146 -255 17 callgsubr
          178 153 70 97 -70 hlineto
          34 122 325 callgsubr
        </CharString>
        <CharString name="dvJ">
          -33 512 139 callsubr
        </CharString>
        <CharString name="dvJA">
          196 677 636 rmoveto
          -697 -97 492 -63 -214 225 callsubr
          75 -379 28 callgsubr
        </CharString>
        <CharString name="dvJH">
          -31 377 289 callgsubr
          142 97 -539 -97 258 -63 -81 vlineto
          -50 callgsubr
          129 90 -319 199 callgsubr
          29 301 callgsubr
        </CharString>
        <CharString name="dvJHA">
          197 475 311 rmoveto
          -275 hlineto
          196 callsubr
          434 callgsubr
          -63 -81 hlineto
          -50 callgsubr
          84 -221 273 callgsubr
        </CharString>
        <CharString name="dvJH_MA">
          625 902 432 rmoveto
          -89 107 89 hlineto
          -228 -329 -85 callsubr
          -220 -24 rmoveto
          -268 hlineto
          196 callsubr
          311 -107 441 callgsubr
          652 303 rmoveto
          -1140 -97 258 -63 -81 hlineto
          -50 callgsubr
          78 -21 hlineto
          173 callgsubr
        </CharString>
        <CharString name="dvJH_NA">
          613 890 476 rmoveto
          356 callsubr
          -66 -268 vlineto
          196 callsubr
          513 237 callgsubr
          -1114 -97 258 -63 -81 hlineto
          -50 callgsubr
          78 -30 hlineto
          -81 36 196 callgsubr
        </CharString>
        <CharString name="dvJH_R">
          84 390 -118 rmoveto
          185 187 rlineto
          130 vlineto
          -326 -317 rlineto
          128 504 rmoveto
          153 198 97 -595 -97 258 -63 -81 vlineto
          -50 callgsubr
          185 90 -375 199 callgsubr
          29 301 callgsubr
        </CharString>
        <CharString name="dvJH_RA">
          197 475 343 rmoveto
          -275 hlineto
          -18 -7 5 16 hvcurveto
          22 vlineto
          17 7 5 18 vhcurveto
          177 131 434 callgsubr
          -52 -81 hlineto
          -93 -29 -28 -60 hvcurveto
          -47 vlineto
          -60 29 -29 93 vhcurveto
          70 hlineto
          19 7 -4 -17 hvcurveto
          -40 vlineto
          -17 -7 -4 -19 vhcurveto
          -52 38 -140 -219 140 101 96 hlineto
          92 29 28 60 hvcurveto
          55 vlineto
          7 -1 6 -1 6 vhcurveto
          84 -81 hlineto
          -266 -238 rlineto
          129 hlineto
          137 130 rlineto
          -74 -95 callsubr
        </CharString>
        <CharString name="dvJH_YA">
          522 799 -46 callsubr
          -209 -129 227 callsubr
          -111 -76 -268 hlineto
          196 callsubr
          190 hlineto
          148 callsubr
          -1037 -97 258 -63 -81 hlineto
          -50 callgsubr
          78 -30 hlineto
          -94 callsubr
        </CharString>
        <CharString name="dvJ_BA">
          496 613 381 callgsubr
          64 -89 rcurveline
          -97 20 callsubr
          364 435 rmoveto
          -997 -97 793 367 callgsubr
          73 90 -473 225 callsubr
          77 -2 vlineto
          191 callgsubr
          149 hlineto
          15 11 2 4 9 hvcurveto
          -84 -79 callsubr
        </CharString>
        <CharString name="dvJ_DA">
          414 830 333 callgsubr
          67 97 -917 -97 711 -63 -433 97 callgsubr
          -2 vlineto
          -186 -40 callsubr
        </CharString>
        <CharString name="dvJ_DDA">
          405 801 440 callsubr
          -906 -97 681 -63 -403 97 callgsubr
          -2 vlineto
          -66 vlineto
          -67 29 -31 92 vhcurveto
          60 292 callgsubr
          -19 hvcurveto
          -76 vlineto
          -18 -8 335 callsubr
          111 427 callsubr
          105 vlineto
          67 -29 31 -92 vhcurveto
          -60 hlineto
          -18 -8 5 19 hvcurveto
          37 155 callsubr
          endchar
        </CharString>
        <CharString name="dvJ_JA">
          628 1109 636 rmoveto
          -1129 -97 924 -63 -214 -275 hlineto
          -91 callgsubr
          275 -355 97 callgsubr
          -188 -31 callgsubr
          75 -379 28 callgsubr
        </CharString>
        <CharString name="dvJ_JHA">
          636 913 311 rmoveto
          -274 141 callsubr
          29 155 callsubr
          177 153 97 hlineto
          146 callgsubr
          -1137 -97 697 -63 -419 225 callsubr
          77 -2 vlineto
          318 callsubr
          92 vhcurveto
          71 41 callsubr
          -61 428 callgsubr
          -19 vhcurveto
          -52 60 -140 -216 140 66 96 427 callsubr
          78 vlineto
          7 -1 457 callgsubr
          84 -221 -53 callsubr
          hlineto
          endchar
        </CharString>
        <CharString name="dvJ_J_NYA">
          615 1073 636 rmoveto
          -1093 -97 888 -84 -610 -254 hlineto
          -91 callgsubr
          254 -139 -264 -74 callsubr
          167 232 vlineto
          19 191 callsubr
          -198 428 callgsubr
          -19 vhcurveto
          -46 69 -139 -225 139 66 90 427 callsubr
          211 vlineto
          11 -2 8 -4 6 vhcurveto
          80 -358 161 callgsubr
          65 hlineto
          endchar
        </CharString>
        <CharString name="dvJ_J_VA">
          850 1331 636 rmoveto
          -1351 -97 1147 108 callgsubr
          -33 -98 callsubr
          155 87 callgsubr
          97 -396 -275 hlineto
          -91 callgsubr
          275 -355 97 callgsubr
          -188 vlineto
          -81 36 -32 100 314 callsubr
          188 76 vlineto
          -2 -9 -1 -13 -10 vvcurveto
          -156 194 callsubr
        </CharString>
        <CharString name="dvJ_J_YA">
          970 1247 -60 callsubr
          148 81 callgsubr
          50 vlineto
          13 -3 12 -5 408 callsubr
          -1471 -97 1029 432 callgsubr
          -19 vhcurveto
          -326 -245 hlineto
          -21 223 callsubr
          -22 hlineto
          -19 -63 callsubr
          245 -353 -245 vlineto
          -91 callgsubr
          245 -139 -255 -74 callsubr
          158 74 -158 vlineto
          -81 37 -32 99 314 callsubr
          158 75 -158 vlineto
          -94 callsubr
        </CharString>
        <CharString name="dvJ_KA">
          637 1108 428 callsubr
          -1128 -97 717 122 callgsubr
          -32 20 callsubr
          162 155 callsubr
          18 90 -399 225 callsubr
          77 -2 vlineto
          191 callgsubr
          62 hlineto
          22 311 callsubr
          352 -58 callsubr
          33 30 callgsubr
          -39 32 -77 -36 callgsubr
        </CharString>
        <CharString name="dvJ_MA">
          645 922 218 callgsubr
          -1146 -97 714 -107 -436 -231 hlineto
          -91 callgsubr
          231 -139 -241 -74 callsubr
          144 77 -2 vlineto
          221 callgsubr
          -82 callgsubr
          endchar
        </CharString>
        <CharString name="dvJ_NA">
          620 688 294 callgsubr
          413 257 rmoveto
          -1121 -97 916 -63 -638 225 callsubr
          77 -2 vlineto
          365 callsubr
          68 -379 28 callgsubr
        </CharString>
        <CharString name="dvJ_NY">
          -39 67 358 rmoveto
          161 23 callsubr
          -198 202 callgsubr
          211 64 callsubr
          142 97 -461 hlineto
          -87 181 rmoveto
          -97 548 97 vlineto
          endchar
        </CharString>
        <CharString name="dvJ_NYA">
          190 671 636 rmoveto
          -691 -97 487 -84 -400 -97 161 23 callsubr
          -198 202 callgsubr
          211 64 callsubr
          81 -358 273 callgsubr
        </CharString>
        <CharString name="dvJ_NY_YA">
          529 806 27 callsubr
          115 13 vlineto
          93 455 callsubr
          78 61 callsubr
          146 callgsubr
          -1030 -97 580 hlineto
          31 249 callgsubr
          -70 -45 callsubr
          -505 -97 161 23 callsubr
          -156 202 callgsubr
          169 64 callsubr
          75 -125 hlineto
          -94 callsubr
        </CharString>
        <CharString name="dvJ_R">
          90 callgsubr
          endchar
        </CharString>
        <CharString name="dvJ_RA">
          196 677 636 95 callsubr
        </CharString>
        <CharString name="dvJ_TA">
          428 909 636 rmoveto
          -929 -97 725 -63 -447 225 callsubr
          77 -2 vlineto
          -278 280 callsubr
          235 155 callsubr
          66 -379 273 callgsubr
        </CharString>
        <CharString name="dvJ_TTA">
          410 827 388 callgsubr
          -911 -97 708 -63 -430 97 callgsubr
          -2 vlineto
          -264 vlineto
          -81 36 -32 100 vhcurveto
          83 hlineto
          100 37 32 81 hvcurveto
          113 -140 -9 callgsubr
          endchar
        </CharString>
        <CharString name="dvJ_VA">
          421 902 636 rmoveto
          -922 -97 717 -337 hlineto
          -21 -8 -6 -18 vhcurveto
          -32 hlineto
          -18 -8 435 callgsubr
          18 97 -399 225 callsubr
          77 -2 vlineto
          191 callgsubr
          62 hlineto
          22 15 407 callgsubr
        </CharString>
        <CharString name="dvJ_YA">
          541 818 27 callsubr
          148 81 callgsubr
          50 vlineto
          13 -3 12 -4 408 callsubr
          -1042 -97 599 432 callgsubr
          -18 vhcurveto
          -326 -245 hlineto
          -91 callgsubr
          245 -139 -255 -74 callsubr
          158 75 -158 vlineto
          -61 callgsubr
        </CharString>
        <CharString name="dvJx">
          -33 164 hmoveto
          -116 107 116 vlineto
          241 139 callsubr
        </CharString>
        <CharString name="dvJxA">
          196 170 437 callsubr
          507 627 rmoveto
          -697 -97 492 -63 -214 225 callsubr
          75 -379 28 callgsubr
        </CharString>
        <CharString name="dvJx_JxA">
          628 165 -106 -32 callsubr
          439 -116 -32 callsubr
          505 626 rmoveto
          -1129 -97 924 -63 -214 -275 hlineto
          -91 callgsubr
          275 -355 97 callgsubr
          -188 -31 callgsubr
          75 -379 28 callgsubr
        </CharString>
        <CharString name="dvJx_R">
          90 callgsubr
          -130 -194 315 callsubr
          endchar
        </CharString>
        <CharString name="dvJx_RA">
          196 405 -161 -32 callsubr
          272 681 95 callsubr
        </CharString>
        <CharString name="dvJx_YA">
          541 164 437 callsubr
          654 200 303 callgsubr
          -146 -95 callgsubr
          148 81 callgsubr
          50 vlineto
          13 -3 12 -4 408 callsubr
          -1042 -97 599 432 callgsubr
          -18 vhcurveto
          -326 -245 hlineto
          -91 callgsubr
          245 -139 -255 -74 callsubr
          158 75 -158 vlineto
          -61 callgsubr
        </CharString>
        <CharString name="dvK">
          -11 533 428 callsubr
          -553 -97 271 -337 vlineto
          -107 callgsubr
          322 -58 callsubr
          116 97 -95 hlineto
          232 callgsubr
          vlineto
          endchar
        </CharString>
        <CharString name="dvKA">
          181 662 428 callsubr
          -682 -97 271 -337 vlineto
          -107 callgsubr
          352 -58 callsubr
          33 30 callgsubr
          -40 32 -76 -36 callgsubr
        </CharString>
        <CharString name="dvKH">
          147 561 359 rmoveto
          322 callsubr
          153 97 -104 -98 callsubr
          -581 423 rmoveto
          -97 226 vlineto
          -6 callgsubr
          318 97 hlineto
          endchar
        </CharString>
        <CharString name="dvKHA">
          366 847 636 rmoveto
          -867 -90 callgsubr
          261 98 -238 169 callsubr
          -323 hlineto
          -41 callsubr
          -105 138 -72 callgsubr
        </CharString>
        <CharString name="dvKH_KHA">
          967 1448 636 rmoveto
          -1468 -90 callgsubr
          261 98 -238 26 callsubr
          435 378 callsubr
          334 callsubr
          -256 hlineto
          -41 callsubr
          -1 vlineto
          -20 callgsubr
        </CharString>
        <CharString name="dvKH_MA">
          802 1085 432 -21 callsubr
        </CharString>
        <CharString name="dvKH_NA">
          790 859 201 rmoveto
          -21 -9 165 callgsubr
          50 hlineto
          412 257 rmoveto
          -1291 -90 callgsubr
          261 98 -238 26 callsubr
          695 -63 -301 hlineto
          123 callgsubr
          -161 307 callgsubr
          150 -37 callgsubr
          -174 vlineto
          -81 39 -32 76 vhcurveto
          73 hlineto
          29 18 7 13 11 hvcurveto
          -22 21 36 -10 55 326 callsubr
        </CharString>
        <CharString name="dvKH_R">
          101 callsubr
          185 199 163 callsubr
        </CharString>
        <CharString name="dvKH_RA">
          366 847 636 31 callsubr
        </CharString>
        <CharString name="dvKH_SHA">
          794 182 235 rmoveto
          73 hlineto
          89 35 -42 callgsubr
          231 97 -623 -90 callgsubr
          261 98 -238 113 callsubr
          584 509 rmoveto
          -92 -29 -39 -67 hvcurveto
          -74 139 387 callsubr
          23 23 callsubr
          -147 -57 callgsubr
          -36 56 -140 -180 210 callgsubr
          17 90 -59 137 callsubr
          105 427 callsubr
          90 -139 -76 vlineto
          -18 -8 130 callgsubr
          131 59 79 callsubr
        </CharString>
        <CharString name="dvKH_TA">
          598 1079 636 rmoveto
          -1099 -97 226 hlineto
          -6 callgsubr
          503 -63 -109 hlineto
          123 callgsubr
          -161 vlineto
          -41 callsubr
          -6 29 callsubr
        </CharString>
        <CharString name="dvKH_VA">
          586 1067 636 -16 callsubr
        </CharString>
        <CharString name="dvKH_YA">
          712 989 56 callgsubr
          146 callgsubr
          -1213 -90 callgsubr
          261 98 -238 26 callsubr
          371 hlineto
          32 6 213 callgsubr
          -175 309 callgsubr
          153 -37 callgsubr
          -177 vlineto
          -81 39 -32 76 vhcurveto
          73 hlineto
          30 20 7 15 11 hvcurveto
          -21 22 36 -10 51 6 callgsubr
        </CharString>
        <CharString name="dvKHx">
          147 150 -168 -32 callsubr
          411 411 rmoveto
          322 callsubr
          153 97 -104 -98 callsubr
          -581 423 rmoveto
          -97 226 vlineto
          -6 callgsubr
          318 97 hlineto
          endchar
        </CharString>
        <CharString name="dvKHxA">
          366 150 -168 -32 callsubr
          697 688 rmoveto
          -867 -90 callgsubr
          261 98 -238 169 callsubr
          -323 hlineto
          -41 callsubr
          -105 138 -72 callgsubr
        </CharString>
        <CharString name="dvKHx_MA">
          802 150 -168 -32 callsubr
          935 484 -21 callsubr
        </CharString>
        <CharString name="dvKHx_R">
          101 callsubr
          -154 -165 -32 callsubr
          339 248 163 callsubr
        </CharString>
        <CharString name="dvKHx_RA">
          366 598 -164 -32 callsubr
          249 684 31 callsubr
        </CharString>
        <CharString name="dvKHx_SA">
          798 150 -168 -32 callsubr
          916 409 336 callsubr
          146 callgsubr
          -1290 -90 callgsubr
          261 98 -238 26 callsubr
          448 212 callsubr
          107 -140 -248 210 callgsubr
          17 90 -59 hlineto
          -92 -30 -32 -67 hvcurveto
          -170 vlineto
          -81 39 -32 76 vhcurveto
          59 hlineto
          24 15 5 10 9 hvcurveto
          -6 vlineto
          5 callgsubr
          282 -261 -79 callsubr
        </CharString>
        <CharString name="dvKHx_SHA">
          794 150 -168 -32 callsubr
          32 287 rmoveto
          73 hlineto
          89 35 -42 callgsubr
          231 97 -623 -90 callgsubr
          261 98 -238 113 callsubr
          584 509 rmoveto
          -92 -29 -39 -67 hvcurveto
          -74 139 387 callsubr
          23 23 callsubr
          -147 -57 callgsubr
          -36 56 -140 -180 210 callgsubr
          17 90 -59 137 callsubr
          105 427 callsubr
          90 -139 -76 vlineto
          -18 -8 130 callgsubr
          131 59 79 callsubr
        </CharString>
        <CharString name="dvKHx_TA">
          598 150 -168 -32 callsubr
          929 688 rmoveto
          -1099 -97 226 hlineto
          -6 callgsubr
          503 -63 -109 hlineto
          123 callgsubr
          -161 vlineto
          -41 callsubr
          -6 29 callsubr
        </CharString>
        <CharString name="dvKHx_VA">
          586 150 -168 -32 callsubr
          917 688 -16 callsubr
        </CharString>
        <CharString name="dvKHx_YA">
          712 150 -168 -32 callsubr
          839 261 -67 callgsubr
          89 13 vlineto
          92 -19 callsubr
          86 hlineto
          146 callgsubr
          -1213 -90 callgsubr
          261 98 -238 26 callsubr
          371 hlineto
          32 6 213 callgsubr
          -175 309 callgsubr
          153 -37 callgsubr
          -177 vlineto
          -81 39 -32 76 vhcurveto
          73 hlineto
          30 20 7 15 11 hvcurveto
          -21 22 36 -10 51 6 callgsubr
        </CharString>
        <CharString name="dvK_CA">
          421 698 202 rmoveto
          -21 -8 -6 -19 vhcurveto
          -38 -98 callsubr
          122 vlineto
          24 8 2 26 vhcurveto
          19 97 -223 hlineto
          232 callgsubr
          307 413 callgsubr
          -922 -49 callsubr
          383 callgsubr
          -113 vlineto
          -81 39 -32 76 vhcurveto
          68 hlineto
          23 15 -11 callgsubr
        </CharString>
        <CharString name="dvK_DA">
          415 391 539 rmoveto
          301 -81 -254 -78 callgsubr
          441 -83 rmoveto
          178 66 97 -918 -97 271 -337 vlineto
          -107 callgsubr
          334 -58 callsubr
          58 -2 hlineto
          -168 vlineto
          -81 36 -32 100 vhcurveto
          145 callgsubr
          -92 140 274 -140 -72 380 callgsubr
          -7 5 21 hvcurveto
          134 vlineto
          21 223 callgsubr
          endchar
        </CharString>
        <CharString name="dvK_JA">
          629 906 476 rmoveto
          -215 -275 hlineto
          -21 223 callsubr
          -23 20 callsubr
          275 -177 vlineto
          -73 callgsubr
          77 515 413 callgsubr
          -1130 -97 271 -337 hlineto
          -107 callgsubr
          352 -58 callsubr
          58 -188 hlineto
          -81 36 -32 100 314 callsubr
          188 75 235 callgsubr
        </CharString>
        <CharString name="dvK_KA">
          624 694 202 rmoveto
          -101 callsubr
          17 90 -215 -47 callsubr
          303 vlineto
          454 callsubr
          -1125 -97 271 -337 vlineto
          -107 callgsubr
          352 -58 callsubr
          59 hlineto
          -4 -13 -2 -14 -12 vvcurveto
          -149 vlineto
          -102 callgsubr
        </CharString>
        <CharString name="dvK_KHA">
          798 672 365 rmoveto
          -26 -8 -7 -26 vhcurveto
          -23 114 -177 hlineto
          232 callgsubr
          247 vlineto
          26 8 -1 callsubr
          607 130 rmoveto
          -1299 -102 callsubr
          58 -245 hlineto
          -20 callgsubr
        </CharString>
        <CharString name="dvK_LA">
          633 912 446 366 callgsubr
          -273 hlineto
          232 callgsubr
          521 vlineto
          202 97 rmoveto
          -1134 -102 callsubr
          59 316 callgsubr
          -234 167 callsubr
          96 98 -53 199 callgsubr
          202 -15 callgsubr
          30 hlineto
          21 364 callsubr
          -349 301 callsubr
        </CharString>
        <CharString name="dvK_MA">
          646 923 3 callsubr
        </CharString>
        <CharString name="dvK_NA">
          621 898 446 rmoveto
          -460 hlineto
          232 callgsubr
          507 vlineto
          -208 -338 71 callgsubr
          -22 20 callsubr
          125 167 callgsubr
          412 287 rmoveto
          -1122 -102 callsubr
          58 -2 hlineto
          -156 310 callsubr
          158 69 -349 -79 callsubr
        </CharString>
        <CharString name="dvK_NNA">
          643 698 201 rmoveto
          -21 223 callsubr
          -23 20 callsubr
          338 76 vlineto
          -260 153 callgsubr
          91 -93 vlineto
          642 190 rmoveto
          -1144 -49 callsubr
          -158 hlineto
          -81 36 -32 100 314 callsubr
          348 82 -539 -95 callsubr
        </CharString>
</ttFont>
